<!-- Generator: Adobe Illustrator 21.1.0, SVG Export Plug-In  -->
<svg version="1.1"
	 xmlns="http://www.w3.org/2000/svg" xmlns:xlink="http://www.w3.org/1999/xlink" xmlns:a="http://ns.adobe.com/AdobeSVGViewerExtensions/3.0/"
	 x="0px" y="0px" width="22.4px" height="21.5px" viewBox="0 0 22.4 21.5" style="enable-background:new 0 0 22.4 21.5;"
	 xml:space="preserve">
<style type="text/css">
	.st0{fill:#3C3C3C;}
</style>
<defs>
</defs>
<path class="st0" d="M22.4,16.6L13.7,0.1l-0.1,0L13.5,0L9.6,1.5l0,0l0,0L0,16.4l0.1,0.1L0,16.5c2.9,3.1,7.2,4.9,11.3,4.9
	c0.9,0,1.8-0.1,2.7-0.3c0.3,0,0.6-0.1,0.8-0.1c1.7-0.3,3.3-1.1,5-2.2c0.5-0.4,1-0.8,1.5-1.2c0.3-0.3,0.7-0.6,1-0.9l-0.1-0.1
	L22.4,16.6z"/>
</svg>
