<?xml version="1.0" encoding="utf-8"?>
<!-- Generator: Adobe Illustrator 19.2.1, SVG Export Plug-In . SVG Version: 6.00 Build 0)  -->
<svg version="1.2" baseProfile="tiny" id="Layer_1" xmlns="http://www.w3.org/2000/svg" xmlns:xlink="http://www.w3.org/1999/xlink"
	 x="0px" y="0px" viewBox="0 0 46.4 46.5" xml:space="preserve">
<g>
	<path d="M17.2,25.1c-4.2,4.2-8.5,8.5-12.8,12.8c-1.5-1.5-2.9-3-4.4-4.4c0,4.3,0,8.6,0,13c4.3,0,8.6,0,12.9,0c0,0,0.1-0.1,0.1-0.1
		c-1.5-1.5-3-2.9-4.5-4.4c4.3-4.3,8.5-8.5,12.7-12.7C19.9,27.8,18.5,26.5,17.2,25.1z"/>
	<path d="M12.9,0C8.6,0,4.3,0,0,0c0,4.3,0,8.6,0,13c1.5-1.5,3-3,4.6-4.6c4.3,4.3,8.5,8.6,12.7,12.8c1.4-1.3,2.7-2.7,4-4
		C17.1,13,12.8,8.7,8.5,4.4C10,2.9,11.4,1.5,12.9,0z"/>
	<path d="M41.9,38c-4.3-4.3-8.5-8.5-12.7-12.7c-1.4,1.4-2.7,2.7-4,4c4.2,4.2,8.5,8.4,12.8,12.8c-1.5,1.5-2.9,2.9-4.4,4.4
		c4.3,0,8.6,0,12.9,0c0-4.3,0-8.6,0-13C44.9,35,43.4,36.5,41.9,38z"/>
	<path d="M29,21.5c4.3-4.3,8.6-8.6,13-13c1.5,1.5,2.9,3,4.4,4.5c0-4.3,0-8.6,0-12.9c-4.3,0-8.6,0-13.1,0c1.6,1.6,3.1,3,4.6,4.6
		c-4.3,4.3-8.6,8.6-12.9,12.9C26.4,18.8,27.7,20.1,29,21.5z"/>
</g>
</svg>
