<!-- Generator: Adobe Illustrator 19.2.1, SVG Export Plug-In  -->
<svg version="1.1"
	 xmlns="http://www.w3.org/2000/svg" xmlns:xlink="http://www.w3.org/1999/xlink" xmlns:a="http://ns.adobe.com/AdobeSVGViewerExtensions/3.0/"
	 x="0px" y="0px" width="66.4px" height="74.4px" viewBox="0 0 66.4 74.4" style="enable-background:new 0 0 66.4 74.4;"
	 xml:space="preserve">
	<path d="M27.8,60.5c-2.5,0-0.3,0.1-3.5,0c-4.6-0.2-9.8-3.8-10.6-4.3c-1.7-1.1-6-5.3-6-8.8c0-1,1.2-3.4,3.8-3.4
		c0.9,0,5.9,2.2,10.1,6.5C26.9,55.7,26.8,57.6,27.8,60.5 M39.6,41.3h-3c-0.1,0-4.9-0.4-10.8-4.3c-1.6-1.1-6-5.5-6-8.9
		c0-1,1.3-3.4,3.9-3.4c1,0,3.7,0.9,9.9,6.3C39.8,36.3,39.6,41.3,39.6,41.3 M52,24.5c-1,0-4.4-0.2-11.3-5.4c-1-0.8-7.6-6.7-7.6-9.1
		c0-2.2,2.1-4.1,3.9-4.1h1c2.8,0,7.2,2.6,10.1,6.5C50,15,52.4,20.3,52,24.5 M66.4,19.5v-2.2c0-2.6-1.9-7.3-3-9
		C59.8,2.2,57.3,0,56.1,0c-1.5,0-2.2,1.1-2.2,2.2c0,2,2.6,2.7,5.3,7.6c2.5,4.5,2.7,7.6,2.7,7.6v1.8c0,1.9-2.2,5.5-5.4,5.4
		c0.1-2.9-0.8-9.5-4.4-14.4c-6.2-8.6-13.8-8.8-14-8.8h-1.6c-3.8,0-8,4-8,7.3v2.3c0,4.2,7,9.4,10.2,12.4c1.9,1.8,6.4,3.9,6.4,3.9
		c4,1.9,6.4,1.4,6.4,2.2c0,2.2-2.3,6.1-2.6,6.6c-1.8,2.4-3.1,3.8-4.8,4.2c-1-2-0.1-6.6-7.4-12.8c-7.8-6.8-11.8-7.3-12.9-7.3
		c-4,0-8.4,3.2-8.4,7.8c0,4.9,3.9,9.6,8.3,12.9c5.9,4.3,12.5,5,12.5,5h3.6c-0.4,6.6-4.4,13.2-7.4,13.6c-1.2-1.9,0.2-4.5-8-12.8
		c-5.7-5.6-11.6-7.1-12.8-7.1c-4,0-8.4,3.2-8.4,7.8c0,2.2,0.8,4.9,2.9,7.8c4.4,5.9,12.6,9.4,17.9,10.1c0.5,0.1,0.3,0,3.8,0
		c-0.8,3.1-3.1,4.6-6.4,4.5c-1.4,0-0.7,0.2-3.1,0c-1,0-5.9-1.1-8.7-3.1c-6.6-5.1-4.8-7.3-7.4-7.3c-1.5,0-2.2,1.1-2.2,2.2
		c0,0.9,2.6,6.2,7.7,9.2c2.9,1.7,7.7,3.4,10.1,3.6h3.7c8.2-0.2,10.2-6,10.8-8.7c0.3-1.3,0.3-1.4,0.3-1.4s4.1-1.7,5.5-3.3
		c2.5-3.2,3.5-4.7,4.2-6.8c1-2.9,1.3-3.5,1.8-6.7c0.5-3.9-1-1,4.9-4.5c2.5-1.6,7-8.7,7-13.6C64.3,28.9,66.4,21.6,66.4,19.5"/>
</svg>
