<!-- Generator: Adobe Illustrator 19.2.1, SVG Export Plug-In  -->
<svg version="1.1"
	 xmlns="http://www.w3.org/2000/svg" xmlns:xlink="http://www.w3.org/1999/xlink" xmlns:a="http://ns.adobe.com/AdobeSVGViewerExtensions/3.0/"
	 x="0px" y="0px" width="60.9px" height="142.6px" viewBox="0 0 60.9 142.6" style="enable-background:new 0 0 60.9 142.6;"
	 xml:space="preserve">
	<path d="M46.7,141.3c-0.7,0.2-1.4,0.4-2.1,0.5c-2.1,0.5-4.2,0.9-6.4,0.8c-2.3-0.1-4.5-0.6-6.6-1.8c-0.5-0.3-1-0.7-1.4-1
		c-0.6-0.5-0.9-1.2-1.1-1.9c-0.1-0.2-0.2-0.4-0.3-0.6c-0.8-0.9-1.3-2-1.1-3.2c0.1-1.1-0.1-2-0.4-3c-0.9-3.5-1.8-7-2.6-10.5
		c0-0.2-0.1-0.3-0.2-0.4c-0.5-0.8-0.9-1.6-0.6-2.6c0-0.1,0-0.3,0-0.4c-1.2-4.4-2.3-8.8-3.5-13.1c-0.1-0.2-0.1-0.5-0.2-0.7
		c-0.1-0.4-0.2-0.7-0.5-1.1c-0.4-0.5-0.5-1.1-0.3-1.7c0-0.1,0-0.3,0-0.4c-1-4-2-8-3.1-11.9c0-0.1,0-0.2-0.1-0.3
		c-0.7-0.8-0.7-1.9-0.9-2.8c-0.1-0.4,0.1-0.9,0.5-1.1c0.7-0.7,1.5-1.3,2.3-1.9c2.3-1.5,4.7-2.6,7.3-3.5c0.1,0,0.2-0.1,0.3-0.1
		c-0.1-0.2-0.1-0.4-0.2-0.6c-4.4-13.1-8.7-26.3-13.1-39.4C8.1,26.2,4.1,14,0.1,1.8c-0.1-0.4-0.1-0.7,0.2-1C0.8,0,2-0.2,2.8,0.3
		C3,0.3,3.1,0.5,3.1,0.7C4.4,4.5,5.7,8.3,7,12.2c3.4,10.2,6.8,20.3,10.1,30.5c3.8,11.5,7.6,22.9,11.3,34.4c0,0.1,0.1,0.2,0.1,0.4
		c0.2-0.1,0.4-0.1,0.5-0.1c2.4-0.7,4.8-1.3,7.3-1.5c0.8-0.1,1.7,0,2.5,0.1c0.4,0,0.8,0.2,1.2,0.4c0.4,0.1,0.6,0.4,0.7,0.8
		c0.3,0.9,0.5,1.8,0.8,2.6c1.5,3.7,2.9,7.4,4.4,11.1c0.2,0.5,0.3,0.9,0.8,1.3c0.4,0.3,0.4,0.8,0.4,1.3c0,0.2,0,0.4,0.1,0.6
		c1.5,3.8,3,7.7,4.5,11.5c0.2,0.5,0.4,1,0.6,1.6c0.2,0.5,0.4,1,0.8,1.4c0.5,0.5,0.6,1.1,0.6,1.8c0,0.2,0,0.4,0.1,0.6
		c1.7,4.1,3.3,8.3,5,12.4c0.1,0.2,0.2,0.3,0.3,0.4c1,1.1,1.5,2.4,1.3,3.9c0,0.1,0,0.2,0,0.3c0.3,1.3,0.2,2.6-0.4,3.8
		c-1,2.1-2.6,3.8-4.5,5.2c-2.2,1.7-4.7,2.8-7.3,3.8c-0.1,0-0.2,0.1-0.3,0.2C47.7,141,47.2,141.1,46.7,141.3"/>
</svg>
