<!-- Generator: Adobe Illustrator 19.2.1, SVG Export Plug-In  -->
<svg version="1.1"
	 xmlns="http://www.w3.org/2000/svg" xmlns:xlink="http://www.w3.org/1999/xlink" xmlns:a="http://ns.adobe.com/AdobeSVGViewerExtensions/3.0/"
	 x="0px" y="0px" width="45.3px" height="43.3px" viewBox="0 0 45.3 43.3" style="enable-background:new 0 0 45.3 43.3;"
	 xml:space="preserve">
<defs>
</defs>
<g>
	<path d="M45.3,33.4L27.7,0.2l-0.2,0.1L27.3,0l-7.9,2.9l0,0l0,0L0,33.1l0.2,0.1l-0.1,0.1c6,6.3,14.6,9.9,22.9,9.9
		c1.9,0,3.7-0.2,5.5-0.6c0.6-0.1,1.1-0.1,1.7-0.2c3.4-0.6,6.7-2.2,10-4.5c1-0.8,2-1.6,3-2.4c0.7-0.6,1.4-1.2,2.1-1.8L45,33.6
		L45.3,33.4z"/>
</g>
</svg>
