<!-- Generator: Adobe Illustrator 21.1.0, SVG Export Plug-In  -->
<svg version="1.1"
	 xmlns="http://www.w3.org/2000/svg" xmlns:xlink="http://www.w3.org/1999/xlink" xmlns:a="http://ns.adobe.com/AdobeSVGViewerExtensions/3.0/"
	 x="0px" y="0px" width="498.5px" height="192px" viewBox="0 0 498.5 192" style="enable-background:new 0 0 498.5 192;"
	 xml:space="preserve">
<style type="text/css">
	.st0{fill:#B1DED3;}
	.st1{clip-path:url(#SVGID_2_);fill:#FFFFFF;}
	.st2{clip-path:url(#SVGID_4_);fill:#FFFFFF;}
</style>
<defs>
</defs>
<polygon class="st0" points="439,0 8.9,4.7 0,110.6 8.9,128.6 162.8,133.5 167,192 486,192 498.5,98.3 444,98.3 "/>
<g>
	<defs>
		<rect id="SVGID_1_" width="498.5" height="192"/>
	</defs>
	<clipPath id="SVGID_2_">
		<use xlink:href="#SVGID_1_"  style="overflow:visible;"/>
	</clipPath>
	<path class="st1" d="M366.9,58.8c0,6.3,0,12.6,0,18.9c0,2.3,0.5,2.8,2.9,2.9c0.9,0,1.8,0,2.7,0.1c0.4,0,0.8,0.3,0.8,0.8
		c0,0.5-0.4,0.6-0.8,0.7c-0.5,0.1-1,0.2-1.5,0.2c-3.4,0-6.8,0-10.2,0c-0.9,0-2.4,0.2-2.4-1.1c0-1.1,1.4-0.7,2.3-0.7
		c4.7,0,4.4,0.2,4.4-4.5c0-12.7,0-25.3,0-38c0-2.5-0.3-2.8-2.8-2.9c-0.9,0-1.9,0-2.8,0c-0.6,0-1.2-0.2-1.2-1c0-0.7,0.5-0.9,1.1-0.9
		c2.5,0,4.9-0.1,7.4,0c1.5,0.1,2.1,1.5,2.8,2.5c4,5.9,7.8,11.9,11.7,17.9c4.4,6.7,8.8,13.4,13.1,20.1c0.7,1.1,1.5,2.2,2.2,3.3
		c0.3,0.4,0.5,0.9,1,0.8c0.7-0.2,0.4-0.9,0.4-1.3c0-7.1-0.1-14.3,0.1-21.4c0.2-5.9-0.2-11.7-0.1-17.6c0.1-2-0.4-2.4-2.4-2.4
		c-0.8,0-1.6,0-2.4,0c-0.6,0-1.3-0.2-1.3-0.9c0-0.8,0.7-0.9,1.4-1c0.5,0,1,0,1.6,0c3.4,0,6.8,0,10.2,0c0.7,0,1.7-0.1,1.7,0.9
		c0,1-0.9,0.9-1.7,1c-1.2,0.1-2.4,0.2-3.6,0.3c-0.9,0.1-1.3,0.5-1.4,1.4c0,0.5,0,1.1,0,1.6c0,12.4,0,24.9,0,37.3c0,0.6,0,1.3,0,1.9
		c-0.1,2.6,0.1,2.8,2.8,2.9c1,0,2,0,3,0.1c0.5,0,1,0.3,1,0.9c0,0.6-0.5,0.9-0.9,0.9c-2.8,0.1-5.6,0.4-8.3-0.3
		c-0.4-0.1-0.7-0.3-0.9-0.6c-2.5-3.8-5-7.6-7.6-11.4c-3.4-5.2-6.8-10.3-10.2-15.5c-2.6-3.9-5.2-7.9-7.8-11.8c-1-1.5-2-3-3-4.4
		c-0.2-0.3-0.5-0.8-1-0.6c-0.5,0.2-0.5,0.7-0.5,1.1c0,2.2,0,4.4,0,6.6C366.9,49.8,366.9,54.3,366.9,58.8"/>
	<path class="st1" d="M368.3,146.2c0,6.3,0,12.6,0,18.9c0,2.6,0.5,3.1,3.1,3.1c0.7,0,1.4,0,2,0c0.4,0,0.9,0.2,0.9,0.7
		c0,0.6-0.5,0.8-1,0.8c-0.9,0-1.8,0-2.7,0c-3,0-6,0-9,0c-0.4,0-0.8,0-1.3,0c-0.4,0-0.9-0.2-0.9-0.7c0-0.5,0.4-0.7,0.9-0.7
		c1.2,0,2.3,0,3.5-0.1c1.8,0,2.4-0.6,2.4-2.4c0-13.7,0-27.3,0-41c0-1.5-0.7-2.1-2.1-2.1c-1.2,0-2.3,0-3.5,0c-0.6,0-1.2-0.2-1.2-0.9
		c0-0.8,0.6-0.9,1.2-0.9c2.4,0,4.7,0,7.1,0c0.9,0,1.6,0.6,2,1.3c6.9,10.6,13.8,21.2,20.7,31.7c2.3,3.6,4.7,7.1,7.1,10.6
		c0.3,0.4,0.5,1.1,1.2,0.9c0.8-0.2,0.5-0.9,0.5-1.5c0-13,0-25.9,0-38.9c0-1.8-0.4-2.2-2.2-2.2c-0.9,0-1.9,0-2.8-0.1
		c-0.6,0-1.1-0.3-1.1-1c0-0.7,0.6-0.8,1.1-0.8c4.2,0,8.4,0,12.6,0c0.6,0,1.3,0.2,1.3,0.9c0,0.8-0.7,0.9-1.4,0.9
		c-1.2,0-2.4,0.1-3.6,0c-1.4,0-2,0.5-2,2c0,13.7,0,27.3,0,40.9c0,1.9,0.6,2.4,2.5,2.4c1.2,0,2.3,0,3.5,0c0.5,0,1,0.1,1.1,0.7
		c0,0.7-0.6,0.8-1.1,0.8c-2.6,0-5.1,0-7.7,0c-0.9,0-1.3-0.5-1.7-1.2c-3.8-5.8-7.5-11.6-11.3-17.4c-4.4-6.7-8.9-13.5-13.4-20.2
		c-1.1-1.6-2.1-3.3-3.2-4.9c-0.3-0.5-0.6-1.2-1.3-1c-0.7,0.2-0.4,1-0.4,1.5C368.3,133.2,368.3,139.7,368.3,146.2L368.3,146.2z"/>
	<path class="st1" d="M280.7,82.4c-5,0-10.1,0-15.1,0c-0.5,0-1.1,0-1.6-0.1c-0.5-0.1-0.9-0.3-1-0.9c0-0.6,0.5-0.8,0.9-0.9
		c1.2-0.1,2.4-0.1,3.6-0.1c1.4,0,2.1-0.6,2.1-2c0-13.8,0-27.5,0-41.3c0-1.4-0.7-2-2-2c-1.2,0-2.3,0-3.5,0c-0.6,0-1.2-0.1-1.2-0.9
		c0-0.7,0.6-0.9,1.2-0.9c0.5,0,0.9,0,1.4,0c9.9,0,19.7,0,29.6,0c2.6,0,2.8,0.2,2.8,2.8c0,2.4,0,4.8,0,7.2c0,0.7,0,1.7-1,1.7
		c-0.9,0-0.9-0.9-0.9-1.6c0-1.8,0-3.7,0-5.5c0-2.2-0.4-2.6-2.7-2.7c-3.1,0-6.3,0-9.5,0c-3.4,0-6.7,0-10.1,0c-1.9,0-2.3,0.5-2.3,2.4
		c0,5.6,0,11.1,0,16.7c0,1.7,0.6,2.3,2.3,2.3c4.6,0,9.1,0,13.7,0c1.5,0,2.2-0.7,2.3-2.2c0-0.6,0-1.3,0-1.9c0-0.5,0.2-1.1,0.9-1.1
		c0.8,0,1,0.6,1,1.2c0,1.5,0,3,0,4.6c0,1.8,0,3.7,0,5.5c0,0.6-0.2,1.4-1,1.3c-0.7,0-0.7-0.8-0.8-1.3c0-0.1,0-0.1,0-0.2
		c-0.3-4-0.3-4-4.3-4c-3.8,0-7.7,0-11.5,0c-1.9,0-2.4,0.4-2.4,2.3c0,5.8,0,11.7,0,17.5c0,1.7,0.6,2.3,2.3,2.3c6.9,0,13.8,0,20.6,0
		c1.8,0,2.2-0.5,2.3-2.4c0-1.9,0-3.9,0-5.8c0-0.7,0.1-1.5,1-1.5c0.9,0,0.9,0.9,0.9,1.6c0.1,2.7-0.1,5.5,0.2,8.2
		c0.2,1.3-0.7,1.9-2.5,1.9c-3.5,0-7,0-10.6,0C284.2,82.4,282.4,82.4,280.7,82.4"/>
	<path class="st1" d="M204.5,74.7c0-2,0-4,0-6c0-0.6,0.1-1.3,0.8-1.4c0.8-0.1,1,0.7,1.1,1.3c0.1,0.8,0.2,1.7,0,2.5
		c-0.3,1.9,0.5,3.1,1.9,4.3c5.5,4.5,11.7,6.4,18.7,5.5c3-0.4,5.7-1.3,8.1-3.1c4.8-3.8,5.5-11.9-1-15.4c-3.7-2-7.6-2.8-11.5-4
		c-4.3-1.3-8.6-2.2-12.6-4.4c-5.8-3.3-6.8-8.5-4.4-14.1c1.7-4.1,5.1-5.9,9.3-6.8c4.6-0.9,8.9-0.6,13.3,0.8c2.6,0.9,4.7,2.5,6.9,4
		c1.3,0.9,1.7,0.8,1.9-0.8c0.1-0.9,0.1-1.8,0.2-2.7c0-0.5,0.2-1,0.7-1.1c0.6-0.1,1,0.4,1,1c0.1,0.8,0.1,1.6,0.1,2.4
		c0,3.1,0,6.2,0,9.3c0,0.5-0.1,1.1-0.2,1.5c-0.1,0.4-0.5,0.7-1,0.7c-0.5-0.1-0.7-0.5-0.7-0.9c0-1-0.1-2,0-3c0.1-1.1-0.3-2-1.1-2.7
		c-2.8-2.7-6-5-9.7-6.2c-4.9-1.6-9.8-1.3-14.6,0.6c-4,1.6-6.7,7.1-5.3,11.1c0.9,2.7,3,4.5,5.6,5.6c4.2,1.9,8.8,2.8,13.2,4.1
		c3.6,1.1,7.1,2.1,10.4,4c3.8,2.3,5.6,6.4,4.8,10.7c-1.2,6.8-6,10-12.1,11c-5.6,0.9-11,0.4-16-2.3c-1.5-0.8-2.9-1.7-4.1-2.8
		c-0.4-0.4-0.8-0.8-1.4-0.5c-0.6,0.2-0.5,0.9-0.5,1.4c0,0.7,0,1.5,0,2.2c0,0.7-0.1,1.3-1,1.4c-0.9,0-0.9-0.7-0.9-1.3
		C204.4,78.7,204.5,76.7,204.5,74.7L204.5,74.7z"/>
	<path class="st1" d="M91,78.3c1.7-0.6,2.9-2.1,4.3-3.2c0.5-0.4,0.9-1,1.6-0.3c0.6,0.7,0.2,1.1-0.3,1.6c-6.7,5.9-14.5,7.9-23.2,5.9
		c-4-0.9-7.5-2.8-10.3-5.8c-3.4-3.5-5.5-7.8-6.4-12.7c-0.9-4.5-0.8-8.9,0.2-13.3c2.2-9.7,9.7-17.8,20.8-18c5.8-0.1,10.8,2,15.3,5.5
		c1.1,0.9,1.4,0.8,1.7-0.6c0.2-0.9,0.2-1.8,0.1-2.7c-0.1-0.7,0.2-1.4,1-1.3c0.7,0,0.7,0.7,0.7,1.2c0,4.2,0,8.4,0,12.6
		c0,0.5,0,1.1-0.6,1.1c-0.7,0.1-0.8-0.5-0.9-1.1c0-0.1,0-0.1,0-0.2c0.9-5.7-3.3-7.9-7.2-10.1c-7.5-4.2-16.4-3.3-22.4,2.5
		c-3.5,3.4-6,7.6-6.8,12.5c-1.1,6.7-0.8,13.1,2.9,19c2.5,4,5.8,7.3,10.5,8.8c2.7,0.8,5.5,1.4,8.4,1.2C84,81,87.7,80.4,91,78.3"/>
	<path class="st1" d="M443.7,145.5c0,6.6,0,13.2,0,19.8c0,2.4,0.5,2.8,2.9,2.8c1,0,2.1,0,3.1,0c0.5,0,1,0.2,1,0.8
		c0,0.6-0.5,0.7-1,0.8c-1.2,0-2.3,0-3.5,0c-3.2,0-6.4,0-9.6,0c-0.6,0-1.6,0.2-1.5-0.9c0-0.8,0.9-0.7,1.5-0.7c0.8,0,1.7,0,2.5,0
		c2.4,0,2.7-0.3,2.7-2.8c0-3.3,0-6.6,0-9.9c0-8.5,0-17,0-25.5c0-1.8,0.3-3.5,0-5.3c-0.2-1.2-0.7-1.8-1.9-1.8c-4.5,0-9,0-13.5,0
		c-1.2,0-1.7,0.6-1.6,1.8c0,2.2,0,4.4,0,6.6c0,0.6,0.1,1.4-0.8,1.5c-0.9,0.1-1.1-0.7-1.1-1.4c0-2.9,0-5.8,0-8.7
		c0-1.1,0.6-1.6,1.7-1.7c1.2,0,2.3,0,3.5,0c10.8,0,21.5,0,32.3,0c2.3,0,2.5,0.3,2.6,2.5c0,2.3,0,4.6,0,6.9c0,0.4,0,0.7-0.1,1.1
		c-0.1,0.6-0.3,1.4-1.1,1.2c-0.8-0.1-0.9-0.8-0.8-1.5c0.3-1.9,0.1-3.8,0.1-5.7c0-2.4-0.3-2.7-2.7-2.7c-3.8,0-7.7,0-11.5,0
		c-3,0-3.1,0.1-3.1,3.1C443.7,132.5,443.7,139,443.7,145.5"/>
	<path class="st1" d="M329.6,57.9c0,6.6,0,13.2,0,19.8c0,2.3,0.5,2.7,2.8,2.8c0.9,0,1.8,0,2.7,0c0.6,0,1.3,0.1,1.3,0.8
		c0,0.8-0.7,1-1.3,1c-1.3,0-2.6,0-3.9,0c-2.8,0-5.6,0-8.3,0c-0.8,0-2,0.1-2-1c0-0.9,1.2-0.8,1.9-0.9c0.7,0,1.5,0,2.2,0
		c2.3,0,2.7-0.5,2.7-2.8c0-1.5,0-2.9,0-4.4c0-11.8,0-23.5,0-35.3c0-2.3-0.3-2.6-2.6-2.8c-0.9-0.1-1.9,0-2.8,0
		c-0.8,0.1-1.5-0.2-1.5-1c-0.1-0.8,0.7-1,1.3-1c4.4,0,8.8,0,13.2,0c0.6,0,1.2,0.2,1.2,1c0,0.7-0.6,0.9-1.2,0.9c-1.2,0-2.3,0-3.5,0.1
		c-1.5,0.1-2.2,0.9-2.1,2.5C329.7,44.5,329.6,51.2,329.6,57.9"/>
	<path class="st1" d="M333.2,145.4c0-6.5,0-13,0-19.5c0-2.6-0.4-3-3-3c-1,0-2,0-3-0.1c-0.5,0-0.9-0.3-0.9-0.9c0-0.6,0.5-0.8,1-0.9
		c0.4-0.1,0.8-0.1,1.3-0.1c3.7,0,7.4,0,11,0c0.9,0,2.3-0.4,2.3,1c0,1.3-1.4,0.8-2.3,0.9c-0.9,0.1-1.8,0-2.7,0
		c-1.3,0-1.9,0.6-1.9,1.9c0,0.7,0,1.4,0,2c0,12.8,0,25.5,0,38.3c0,2.7,0.4,3.1,3.1,3.1c0.9,0,1.8,0,2.7,0c0.6,0,1.3,0,1.2,0.8
		c0,0.7-0.7,0.7-1.2,0.7c-0.1,0-0.2,0-0.3,0c-4.2,0-8.4,0-12.6,0c-0.6,0-1.5,0.1-1.5-0.8c0-0.9,0.8-0.8,1.4-0.8c0.8,0,1.6,0,2.4,0
		c2.8,0,3.2-0.4,3.2-3.1C333.2,158.5,333.2,151.9,333.2,145.4"/>
	<path class="st1" d="M305.7,147.5c-0.2,3.8-1.2,7.4-3,10.6c-3.7,6.6-9.3,10.3-17.1,10.4c-0.5,0-0.9,0-1.6,0
		c-5.7,0.4-10.8-1.6-14.9-5.9c-3.1-3.3-5-7.2-5.9-11.7c-1-5-0.6-9.8,0.9-14.6c1.8-5.5,5.5-9.7,10.8-12.3c5.2-2.5,10.7-2.6,16.1-1.1
		c5.3,1.5,9.3,5.1,11.9,10.1C305.4,137.7,306,142.5,305.7,147.5 M305.9,134.8c-1.9-5.1-5.2-9.3-10-11.9c-4.5-2.4-9.4-3.1-14.5-2.6
		c-9.7,1-16.4,7.1-19.2,15.8c-2.2,6.9-2,13.9,0.8,20.6c2.2,5.3,5.8,9.4,11,11.7c4.1,1.8,8.3,2.5,12.9,2c5.2-0.6,9.7-2.3,13.3-6
		c5.2-5.2,7.6-11.6,7.2-19.3C307.9,141.8,307.2,138.3,305.9,134.8"/>
	<path class="st1" d="M241,139.7c-1.3,5.5-4.7,8.5-10.4,8.7c-4.9,0.1-9.9,0.1-14.8,0c-1.8,0-2.2-0.5-2.2-2.3c0-3.5,0-7,0-10.5
		c0-3.5,0-6.9,0-10.4c0-1.9,0.4-2.3,2.3-2.3c5.1,0,10.3-0.2,15.4,0.1c4.7,0.2,8.5,3,9.5,8C241.4,133.8,241.6,136.7,241,139.7
		 M242.7,130.7c-0.5-2.4-1.5-4.7-3.4-6.4c-2.6-2.3-5.7-3.4-9.3-3.3c-3.6,0-7.2,0-10.9,0c-1.6,0-3.1,0-4.7,0c-2.7,0-5.4,0-8,0
		c-0.6,0-1.4,0.1-1.4,0.9c0,0.8,0.7,0.9,1.4,0.9c0.9,0,1.9,0,2.8,0c2.5,0,2.7,0.2,2.7,2.7c0,4,0,8,0,12c0,9.2,0,18.5,0,27.7
		c0,2.6-0.4,3-3,3c-0.9,0-1.9,0-2.8,0c-0.5,0-1.2,0.1-1.2,0.8c0,0.7,0.6,0.8,1.2,0.8c4.7,0,9.3,0,14,0c0.5,0,1.1-0.1,1.1-0.8
		c0-0.6-0.6-0.7-1.1-0.7c-1.3,0-2.5,0-3.8,0c-2.3,0-2.8-0.5-2.8-2.8c0-4.3,0-8.5,0-12.8c0-2.1,0.3-2.4,2.5-2.4
		c5.4-0.1,10.8,0.2,16.2-0.3c4.2-0.4,8.2-3.3,9.7-7.2C243.4,138.8,243.4,134.7,242.7,130.7"/>
	<path class="st1" d="M188.1,80.7c-0.9,0.7-1.8,1.5-2.6,2.2c-1.7,1.5-3.4,3-5.2,4.3c-5.7,4.1-11.5,6.8-17.3,7.8
		c-0.7,0.1-1.5,0.2-2.3,0.3l0,0c-0.1,0-0.3,0-0.4,0.1c-9,0.9-21.9-1.9-36.2-16.9l33.8-54.7L188.1,80.7z M154.9,23.9l-33.2,53.7
		l-9.4,1.2l33.2-51.4L154.9,23.9z M112.5,81.3l9.6-1.2c8.5,9,16.6,13.8,23.8,16.2C133.8,95.2,121.7,89.9,112.5,81.3 M191.1,81
		l-32.2-60.6l-0.3,0.2l-0.2-0.6L144,25.4l0,0.1l-0.1,0l-35.5,55l0.4,0.2l-0.3,0.2C119.4,92.4,135.2,99,150.4,99
		c3.4,0,6.8-0.4,10.1-1.1c1.1-0.1,2.1-0.2,3.1-0.4c6.1-1.1,12.3-3.9,18.3-8.3c1.9-1.4,3.7-2.9,5.4-4.5c1.2-1.1,2.5-2.2,3.8-3.2
		l-0.3-0.3L191.1,81z"/>
</g>
</svg>
