<!-- Generator: Adobe Illustrator 19.2.1, SVG Export Plug-In  -->
<svg version="1.1"
	 xmlns="http://www.w3.org/2000/svg" xmlns:xlink="http://www.w3.org/1999/xlink" xmlns:a="http://ns.adobe.com/AdobeSVGViewerExtensions/3.0/"
	 x="0px" y="0px" width="404.2px" height="149.7px" viewBox="0 0 404.2 149.7" style="enable-background:new 0 0 404.2 149.7;"
	 xml:space="preserve">
<g id="logo-text">
	<path d="M308.8,38.5c0,6.3,0,12.5,0,18.8c0,2.3,0.5,2.8,2.9,2.9c0.9,0,1.8,0,2.7,0.1c0.4,0,0.8,0.3,0.8,0.8c0,0.4-0.4,0.6-0.7,0.7
		c-0.5,0.1-1,0.2-1.5,0.2c-3.4,0-6.8,0-10.2,0c-0.9,0-2.4,0.2-2.3-1.1c0-1.1,1.4-0.7,2.2-0.7c4.7,0,4.4,0.2,4.4-4.5
		c0-12.6,0-25.1,0-37.7c0-2.4-0.3-2.8-2.8-2.9c-0.9,0-1.9,0-2.8,0c-0.6,0-1.2-0.2-1.2-1c0-0.7,0.5-0.9,1.1-0.9c2.4,0,4.9-0.1,7.3,0
		c1.5,0.1,2.1,1.5,2.8,2.5c3.9,5.9,7.8,11.8,11.7,17.8c4.4,6.7,8.7,13.3,13,20c0.7,1.1,1.4,2.2,2.2,3.2c0.3,0.4,0.5,0.9,1,0.8
		c0.7-0.2,0.4-0.9,0.4-1.3c0-7.1-0.1-14.2,0.1-21.3c0.2-5.8-0.2-11.7-0.1-17.5c0.1-2-0.4-2.4-2.4-2.4c-0.8,0-1.6,0-2.3,0
		c-0.6,0-1.3-0.2-1.3-0.9c0-0.8,0.7-0.9,1.3-1c0.5,0,1,0,1.6,0c3.4,0,6.8,0,10.2,0c0.7,0,1.7-0.1,1.7,0.9c0,1-0.9,0.9-1.7,1
		c-1.2,0.1-2.4,0.2-3.6,0.3c-0.9,0.1-1.3,0.5-1.4,1.4c0,0.5,0,1,0,1.6c0,12.4,0,24.7,0,37.1c0,0.6,0,1.3,0,1.9
		c-0.1,2.6,0.1,2.8,2.7,2.8c1,0,2,0,3,0.1c0.5,0,0.9,0.3,1,0.9c0,0.6-0.5,0.9-0.9,0.9c-2.8,0.1-5.5,0.4-8.3-0.3
		c-0.4-0.1-0.7-0.3-0.9-0.6c-2.5-3.8-5-7.5-7.5-11.3c-3.4-5.1-6.7-10.3-10.1-15.4c-2.6-3.9-5.1-7.8-7.7-11.7c-1-1.5-2-2.9-2.9-4.4
		c-0.2-0.3-0.5-0.8-1-0.6c-0.5,0.2-0.5,0.7-0.5,1.1c0,2.2,0,4.4,0,6.6C308.8,29.6,308.8,34.1,308.8,38.5"/>
	<path d="M310.2,125.4c0,6.3,0,12.5,0,18.8c0,2.6,0.5,3.1,3.1,3.1c0.7,0,1.4,0,2,0c0.4,0,0.9,0.2,0.9,0.7c0,0.6-0.5,0.8-0.9,0.8
		c-0.9,0-1.8,0-2.7,0c-3,0-5.9,0-8.9,0c-0.4,0-0.8,0-1.2,0c-0.4,0-0.9-0.2-0.9-0.7c0-0.5,0.4-0.7,0.8-0.7c1.1,0,2.3,0,3.4-0.1
		c1.8,0,2.4-0.6,2.4-2.3c0-13.6,0-27.1,0-40.7c0-1.5-0.7-2.1-2.1-2c-1.1,0-2.3,0-3.4,0c-0.6,0-1.2-0.2-1.2-0.9
		c0-0.8,0.6-0.9,1.2-0.9c2.3,0,4.7,0,7,0c0.9,0,1.5,0.6,2,1.3c6.9,10.5,13.7,21,20.6,31.5c2.3,3.5,4.7,7,7.1,10.5
		c0.3,0.4,0.5,1,1.2,0.9c0.8-0.2,0.5-0.9,0.5-1.5c0-12.9,0-25.8,0-38.6c0-1.8-0.4-2.2-2.2-2.2c-0.9,0-1.9,0-2.8-0.1
		c-0.5,0-1-0.3-1.1-1c0-0.7,0.6-0.8,1.1-0.8c4.2,0,8.3,0,12.5,0c0.6,0,1.3,0.2,1.3,0.9c0,0.8-0.7,0.9-1.4,0.9c-1.2,0-2.4,0.1-3.6,0
		c-1.4,0-2,0.5-2,2c0,13.6,0,27.1,0,40.7c0,1.8,0.6,2.4,2.5,2.4c1.1,0,2.3,0,3.4,0c0.5,0,1,0.1,1.1,0.7c0,0.7-0.6,0.8-1.1,0.8
		c-2.6,0-5.1,0-7.7,0c-0.8,0-1.3-0.5-1.7-1.2c-3.7-5.8-7.5-11.5-11.2-17.3c-4.4-6.7-8.8-13.4-13.3-20.1c-1.1-1.6-2.1-3.2-3.2-4.8
		c-0.3-0.5-0.6-1.2-1.2-1c-0.7,0.2-0.4,1-0.4,1.5C310.2,112.5,310.2,118.9,310.2,125.4L310.2,125.4z"/>
	<path d="M223.2,62c-5,0-10,0-15,0c-0.5,0-1,0-1.6-0.1c-0.5-0.1-0.9-0.3-0.9-0.9c0-0.6,0.5-0.8,0.9-0.9c1.2-0.1,2.4-0.1,3.6-0.1
		c1.4,0,2.1-0.6,2.1-2c0-13.7,0-27.3,0-41c0-1.4-0.7-2-2-2c-1.1,0-2.3,0-3.4,0c-0.6,0-1.2-0.1-1.2-0.9c0-0.7,0.6-0.9,1.2-0.9
		c0.5,0,0.9,0,1.4,0c9.8,0,19.6,0,29.4,0c2.5,0,2.8,0.2,2.8,2.8c0,2.4,0,4.8,0,7.2c0,0.7,0,1.7-1,1.6c-0.9,0-0.9-0.9-0.9-1.6
		c0-1.8,0-3.7,0-5.5c0-2.2-0.4-2.6-2.7-2.6c-3.1,0-6.3,0-9.4,0c-3.3,0-6.7,0-10,0c-1.8,0-2.3,0.5-2.3,2.3c0,5.5,0,11.1,0,16.6
		c0,1.7,0.6,2.3,2.3,2.3c4.5,0,9.1,0,13.6,0c1.5,0,2.2-0.7,2.2-2.2c0-0.6,0-1.3,0-1.9c0-0.5,0.2-1.1,0.8-1.1c0.8,0,0.9,0.6,1,1.2
		c0,1.5,0,3,0,4.5c0,1.8,0,3.7,0,5.5c0,0.6-0.2,1.4-1,1.3c-0.7,0-0.7-0.8-0.8-1.3c0-0.1,0-0.1,0-0.2c-0.3-3.9-0.3-3.9-4.3-3.9
		c-3.8,0-7.6,0-11.4,0c-1.9,0-2.4,0.4-2.4,2.2c0,5.8,0,11.6,0,17.4c0,1.7,0.6,2.3,2.3,2.3c6.8,0,13.7,0,20.5,0
		c1.8,0,2.2-0.5,2.2-2.4c0-1.9,0-3.9,0-5.8c0-0.7,0.1-1.5,1-1.5c0.9,0,0.9,0.9,0.9,1.6c0.1,2.7-0.1,5.4,0.2,8.1
		c0.2,1.3-0.7,1.9-2.5,1.9c-3.5,0-7,0-10.5,0C226.6,62,224.9,62,223.2,62"/>
	<path d="M147.5,54.3c0-2,0-4,0-5.9c0-0.6,0.1-1.3,0.7-1.4c0.8-0.1,1,0.7,1.1,1.3c0.1,0.8,0.2,1.7,0,2.5c-0.3,1.9,0.5,3.1,1.9,4.3
		c5.4,4.5,11.6,6.3,18.6,5.5c3-0.4,5.7-1.2,8-3.1c4.8-3.8,5.5-11.8-1-15.3c-3.6-2-7.6-2.8-11.5-4c-4.2-1.3-8.6-2.2-12.5-4.4
		c-5.8-3.3-6.8-8.4-4.4-14c1.7-4.1,5-5.9,9.3-6.7c4.5-0.9,8.9-0.6,13.2,0.8c2.6,0.8,4.7,2.5,6.9,3.9c1.3,0.9,1.6,0.8,1.9-0.8
		c0.1-0.9,0.1-1.8,0.2-2.6c0-0.5,0.2-1,0.7-1c0.6-0.1,1,0.4,1,1c0.1,0.8,0.1,1.6,0.1,2.3c0,3.1,0,6.2,0,9.2c0,0.5-0.1,1-0.2,1.5
		c-0.1,0.4-0.5,0.7-1,0.7c-0.5-0.1-0.7-0.5-0.7-0.9c0-1-0.1-2,0-3c0.1-1.1-0.3-2-1-2.7c-2.8-2.7-5.9-4.9-9.7-6.1
		c-4.9-1.6-9.8-1.3-14.5,0.6c-4,1.6-6.7,7-5.3,11c0.9,2.7,3,4.4,5.6,5.6c4.2,1.9,8.7,2.8,13.1,4.1c3.5,1,7.1,2.1,10.3,4
		c3.8,2.2,5.6,6.3,4.8,10.7c-1.2,6.8-6,9.9-12,11c-5.5,0.9-10.9,0.4-15.9-2.3c-1.5-0.8-2.9-1.6-4.1-2.8c-0.4-0.4-0.8-0.8-1.4-0.5
		c-0.6,0.2-0.5,0.9-0.5,1.4c0,0.7,0,1.5,0,2.2c0,0.7-0.1,1.3-1,1.4c-0.9,0-0.9-0.7-0.9-1.3C147.5,58.3,147.5,56.3,147.5,54.3
		L147.5,54.3z"/>
	<path d="M34.8,58c1.7-0.6,2.9-2.1,4.2-3.2c0.5-0.4,0.9-1,1.6-0.3c0.6,0.7,0.2,1.1-0.3,1.6c-6.7,5.9-14.4,7.8-23.1,5.8
		c-4-0.9-7.4-2.8-10.2-5.7c-3.4-3.5-5.5-7.8-6.4-12.6c-0.9-4.4-0.8-8.9,0.2-13.2c2.2-9.7,9.7-17.7,20.6-17.8
		c5.8-0.1,10.8,2,15.2,5.5c1.1,0.9,1.4,0.8,1.7-0.6c0.2-0.9,0.2-1.7,0.1-2.6c-0.1-0.7,0.2-1.3,1-1.3c0.7,0,0.7,0.7,0.7,1.2
		c0,4.2,0,8.3,0,12.5c0,0.5,0,1-0.6,1.1c-0.7,0.1-0.8-0.5-0.9-1.1c0-0.1,0-0.1,0-0.2c0.9-5.7-3.3-7.9-7.2-10.1
		c-7.4-4.2-16.3-3.3-22.3,2.5C5.7,22.8,3.2,27,2.4,31.9c-1.1,6.6-0.8,13,2.9,18.9c2.5,4,5.7,7.3,10.4,8.7c2.7,0.8,5.5,1.4,8.3,1.2
		C27.8,60.6,31.5,60,34.8,58"/>
	<path d="M385.1,124.7c0,6.6,0,13.1,0,19.7c0,2.4,0.5,2.8,2.9,2.8c1,0,2.1,0,3.1,0c0.5,0,1,0.2,1,0.8c0,0.6-0.5,0.7-1,0.8
		c-1.1,0-2.3,0-3.4,0c-3.2,0-6.4,0-9.5,0c-0.6,0-1.6,0.2-1.5-0.8c0-0.8,0.9-0.7,1.5-0.7c0.8,0,1.7,0,2.5,0c2.4,0,2.6-0.3,2.7-2.7
		c0-3.3,0-6.6,0-9.9c0-8.4,0-16.9,0-25.3c0-1.8,0.3-3.5,0-5.3c-0.2-1.2-0.7-1.8-1.9-1.8c-4.5,0-9,0-13.5,0c-1.2,0-1.6,0.6-1.6,1.8
		c0,2.2,0,4.4,0,6.6c0,0.6,0.1,1.4-0.8,1.5c-0.9,0.1-1.1-0.7-1.1-1.4c0-2.9,0-5.7,0-8.6c0-1.1,0.6-1.6,1.7-1.6c1.1,0,2.3,0,3.4,0
		c10.7,0,21.4,0,32.1,0c2.2,0,2.5,0.3,2.5,2.5c0,2.3,0,4.6,0,6.9c0,0.4,0,0.7-0.1,1.1c-0.1,0.6-0.3,1.4-1.1,1.2
		c-0.7-0.1-0.9-0.8-0.8-1.5c0.3-1.9,0.1-3.8,0.1-5.6c0-2.4-0.3-2.7-2.7-2.7c-3.8,0-7.6,0-11.4,0c-2.9,0-3,0.1-3,3.1
		C385.1,111.8,385.1,118.2,385.1,124.7"/>
	<path d="M271.8,37.7c0,6.6,0,13.1,0,19.7c0,2.3,0.5,2.7,2.8,2.7c0.9,0,1.8,0,2.7,0c0.6,0,1.3,0.1,1.3,0.8c0,0.8-0.7,1-1.3,1
		c-1.3,0-2.6,0-3.9,0c-2.8,0-5.5,0-8.3,0c-0.8,0-2,0.1-2-1c0-0.9,1.2-0.8,1.9-0.9c0.7,0,1.5,0,2.2,0c2.2,0,2.7-0.5,2.7-2.8
		c0-1.5,0-2.9,0-4.4c0-11.7,0-23.4,0-35c0-2.2-0.3-2.6-2.6-2.8c-0.9-0.1-1.9,0-2.8,0c-0.8,0.1-1.5-0.2-1.5-1c-0.1-0.8,0.7-1,1.3-1
		c4.4,0,8.8,0,13.1,0c0.6,0,1.2,0.2,1.1,1c0,0.7-0.6,0.9-1.2,0.9c-1.1,0-2.3,0-3.4,0.1c-1.5,0.1-2.1,0.9-2.1,2.5
		C271.9,24.3,271.8,31,271.8,37.7"/>
	<path d="M275.3,124.6c0-6.5,0-12.9,0-19.4c0-2.6-0.4-3-3-3c-1,0-2,0-3-0.1c-0.5,0-0.9-0.3-0.9-0.9c0-0.6,0.5-0.8,0.9-0.9
		c0.4-0.1,0.8-0.1,1.2-0.1c3.7,0,7.3,0,11,0c0.9,0,2.3-0.4,2.2,1c0,1.3-1.4,0.8-2.3,0.9c-0.9,0.1-1.8,0-2.7,0
		c-1.3,0-1.9,0.6-1.9,1.9c0,0.7,0,1.4,0,2c0,12.7,0,25.3,0,38c0,2.7,0.4,3.1,3.1,3.1c0.9,0,1.8,0,2.7,0c0.6,0,1.3,0,1.2,0.8
		c0,0.7-0.7,0.7-1.2,0.7c-0.1,0-0.2,0-0.3,0c-4.2,0-8.3,0-12.5,0c-0.6,0-1.4,0.1-1.5-0.8c0-0.9,0.8-0.8,1.4-0.8c0.8,0,1.6,0,2.3,0
		c2.8,0,3.2-0.4,3.2-3.1C275.3,137.6,275.3,131.1,275.3,124.6"/>
	<path d="M248.1,126.7c-0.2,3.8-1.1,7.3-3,10.5c-3.7,6.6-9.3,10.2-17,10.3c-0.5,0-0.9,0-1.6,0c-5.7,0.4-10.8-1.6-14.8-5.9
		c-3.1-3.2-4.9-7.1-5.9-11.6c-1-5-0.6-9.8,0.9-14.5c1.8-5.5,5.4-9.6,10.7-12.2c5.2-2.5,10.7-2.6,16-1.1c5.3,1.5,9.2,5.1,11.8,10
		C247.7,116.9,248.3,121.7,248.1,126.7 M248.2,114c-1.9-5.1-5.2-9.2-10-11.8c-4.4-2.4-9.3-3.1-14.4-2.6c-9.6,1-16.3,7.1-19.1,15.7
		c-2.2,6.8-2,13.8,0.8,20.5c2.2,5.2,5.7,9.3,11,11.7c4,1.8,8.3,2.5,12.8,2c5.1-0.6,9.6-2.3,13.2-5.9c5.2-5.2,7.6-11.5,7.2-19.2
		C250.2,121,249.5,117.5,248.2,114"/>
	<path d="M183.7,118.9c-1.3,5.5-4.7,8.5-10.4,8.6c-4.9,0.1-9.8,0.1-14.7,0c-1.8,0-2.2-0.5-2.2-2.3c0-3.5,0-7,0-10.5
		c0-3.4,0-6.9,0-10.3c0-1.9,0.4-2.3,2.3-2.3c5.1,0,10.2-0.2,15.3,0.1c4.6,0.2,8.4,3,9.5,8C184.2,113.1,184.4,116,183.7,118.9
		 M185.4,110c-0.4-2.4-1.5-4.7-3.4-6.4c-2.6-2.3-5.7-3.4-9.2-3.3c-3.6,0-7.2,0-10.8,0c-1.6,0-3.1,0-4.7,0c-2.7,0-5.3,0-8,0
		c-0.6,0-1.4,0.1-1.4,0.9c0,0.8,0.7,0.9,1.4,0.9c0.9,0,1.9,0,2.8,0c2.5,0,2.7,0.2,2.7,2.7c0,4,0,7.9,0,11.9c0,9.2,0,18.4,0,27.5
		c0,2.6-0.4,3-3,3c-0.9,0-1.9,0-2.8,0c-0.5,0-1.2,0.1-1.2,0.8c0,0.7,0.6,0.8,1.2,0.8c4.6,0,9.3,0,13.9,0c0.5,0,1.1-0.1,1.1-0.8
		c0-0.6-0.6-0.7-1.1-0.7c-1.3,0-2.5,0-3.8,0c-2.3,0-2.8-0.5-2.8-2.7c0-4.2,0-8.4,0-12.7c0-2.1,0.3-2.4,2.5-2.4
		c5.4-0.1,10.7,0.2,16.1-0.3c4.1-0.4,8.2-3.3,9.6-7.2C186.2,118,186.2,114,185.4,110"/>
</g>
<path id="logo-cheese" d="M131.3,60.3c-0.9,0.7-1.8,1.5-2.6,2.2c-1.7,1.5-3.4,3-5.2,4.3c-5.7,4.1-11.4,6.7-17.2,7.8c-0.7,0.1-1.5,0.2-2.3,0.3l0,0
	c-0.1,0-0.3,0-0.4,0.1c-9,0.8-21.7-1.9-35.9-16.8l33.6-54.3L131.3,60.3z M98.3,3.9l-33,53.3L56,58.4L89,7.4L98.3,3.9z M56.1,60.9
	l9.5-1.2c8.5,9,16.5,13.8,23.6,16.1C77.3,74.7,65.2,69.5,56.1,60.9 M134.2,60.6l-32-60.2l-0.3,0.2L101.7,0L87.4,5.3l0,0.1l-0.1,0
	L52,60l0.4,0.2l-0.3,0.2c10.8,11.4,26.5,18,41.6,18c3.4,0,6.7-0.4,10-1.1c1.1-0.1,2.1-0.2,3-0.4c6.1-1.1,12.2-3.9,18.2-8.2
	c1.9-1.4,3.7-2.9,5.4-4.4c1.2-1.1,2.5-2.2,3.7-3.2l-0.3-0.3L134.2,60.6z"/>
</svg>
