<?xml version="1.0" encoding="utf-8"?>
<!-- Generator: Adobe Illustrator 19.2.1, SVG Export Plug-In . SVG Version: 6.00 Build 0)  -->
<svg version="1.2" baseProfile="tiny" id="Layer_1" xmlns="http://www.w3.org/2000/svg" xmlns:xlink="http://www.w3.org/1999/xlink"
	 x="0px" y="0px" viewBox="0 0 30.4 30.4" xml:space="preserve">
<g>
	<polygon points="16.8,8.3 13.6,8.3 13.6,13.6 8.3,13.6 8.3,16.8 13.6,16.8 13.6,22.1 16.8,22.1 16.8,16.8 22.1,16.8 22.1,13.6 
		16.8,13.6 	"/>
	<path d="M15.2,0C6.8,0,0,6.8,0,15.2s6.8,15.2,15.2,15.2s15.2-6.8,15.2-15.2S23.6,0,15.2,0z M15.2,27.7c-6.9,0-12.5-5.6-12.5-12.5
		S8.3,2.7,15.2,2.7s12.5,5.6,12.5,12.5S22.1,27.7,15.2,27.7z"/>
</g>
</svg>
