<?xml version="1.0" encoding="utf-8"?>
<!-- Generator: Adobe Illustrator 19.2.1, SVG Export Plug-In . SVG Version: 6.00 Build 0)  -->
<svg version="1.2" baseProfile="tiny" id="Layer_1" xmlns="http://www.w3.org/2000/svg" xmlns:xlink="http://www.w3.org/1999/xlink"
	 x="0px" y="0px" viewBox="0 0 36.5 46.5" xml:space="preserve">
<g>
	<path fill="#010101" d="M26.4,12.1h10.2v34.4H0V12h10.2V6.9C10.2,5,11,3.4,12.5,2c1.6-1.3,3.5-2,5.7-2c2.2,0,4.2,0.7,5.7,2
		c1.6,1.3,2.4,3,2.4,4.9V12.1z M12.2,6.9V12h12.1V6.9c0-1.5-0.6-2.7-1.7-3.7c-1.2-1-2.6-1.5-4.4-1.5c-1.7,0-3.1,0.5-4.3,1.5
		C12.8,4.2,12.2,5.4,12.2,6.9z"/>
</g>
</svg>
