<svg version="1.2" baseProfile="tiny" id="Layer_1" xmlns="http://www.w3.org/2000/svg" x="0" y="0" viewBox="0 0 46.4 46.5" xml:space="preserve"><path d="M17.2 25.1L4.4 37.9c-1.5-1.5-2.9-3-4.4-4.4v13h12.9l.1-.1c-1.5-1.5-3-2.9-4.5-4.4l12.7-12.7c-1.3-1.5-2.7-2.8-4-4.2zM12.9 0H0v13l4.6-4.6c4.3 4.3 8.5 8.6 12.7 12.8 1.4-1.3 2.7-2.7 4-4L8.5 4.4 12.9 0zM41.9 38L29.2 25.3l-4 4c4.2 4.2 8.5 8.4 12.8 12.8l-4.4 4.4h12.9v-13c-1.6 1.5-3.1 3-4.6 4.5zM29 21.5l13-13c1.5 1.5 2.9 3 4.4 4.5V.1H33.3c1.6 1.6 3.1 3 4.6 4.6L25 17.6c1.4 1.2 2.7 2.5 4 3.9z"/></svg>