<svg version="1.1" xmlns="http://www.w3.org/2000/svg" x="0" y="0" width="66.4" height="74.4" viewBox="0 0 66.4 74.4" xml:space="preserve"><path d="M27.8 60.5c-2.5 0-.3.1-3.5 0-4.6-.2-9.8-3.8-10.6-4.3-1.7-1.1-6-5.3-6-8.8 0-1 1.2-3.4 3.8-3.4.9 0 5.9 2.2 10.1 6.5 5.3 5.2 5.2 7.1 6.2 10m11.8-19.2h-3c-.1 0-4.9-.4-10.8-4.3-1.6-1.1-6-5.5-6-8.9 0-1 1.3-3.4 3.9-3.4 1 0 3.7.9 9.9 6.3 6.2 5.3 6 10.3 6 10.3M52 24.5c-1 0-4.4-.2-11.3-5.4-1-.8-7.6-6.7-7.6-9.1 0-2.2 2.1-4.1 3.9-4.1h1c2.8 0 7.2 2.6 10.1 6.5C50 15 52.4 20.3 52 24.5m14.4-5v-2.2c0-2.6-1.9-7.3-3-9C59.8 2.2 57.3 0 56.1 0c-1.5 0-2.2 1.1-2.2 2.2 0 2 2.6 2.7 5.3 7.6 2.5 4.5 2.7 7.6 2.7 7.6v1.8c0 1.9-2.2 5.5-5.4 5.4.1-2.9-.8-9.5-4.4-14.4-6.2-8.6-13.8-8.8-14-8.8h-1.6c-3.8 0-8 4-8 7.3V11c0 4.2 7 9.4 10.2 12.4 1.9 1.8 6.4 3.9 6.4 3.9 4 1.9 6.4 1.4 6.4 2.2 0 2.2-2.3 6.1-2.6 6.6-1.8 2.4-3.1 3.8-4.8 4.2-1-2-.1-6.6-7.4-12.8-7.8-6.8-11.8-7.3-12.9-7.3-4 0-8.4 3.2-8.4 7.8 0 4.9 3.9 9.6 8.3 12.9 5.9 4.3 12.5 5 12.5 5h3.6c-.4 6.6-4.4 13.2-7.4 13.6-1.2-1.9.2-4.5-8-12.8-5.7-5.6-11.6-7.1-12.8-7.1-4 0-8.4 3.2-8.4 7.8 0 2.2.8 4.9 2.9 7.8 4.4 5.9 12.6 9.4 17.9 10.1.5.1.3 0 3.8 0-.8 3.1-3.1 4.6-6.4 4.5-1.4 0-.7.2-3.1 0-1 0-5.9-1.1-8.7-3.1-6.6-5.1-4.8-7.3-7.4-7.3-1.5 0-2.2 1.1-2.2 2.2 0 .9 2.6 6.2 7.7 9.2 2.9 1.7 7.7 3.4 10.1 3.6h3.7c8.2-.2 10.2-6 10.8-8.7.3-1.3.3-1.4.3-1.4s4.1-1.7 5.5-3.3c2.5-3.2 3.5-4.7 4.2-6.8 1-2.9 1.3-3.5 1.8-6.7.5-3.9-1-1 4.9-4.5 2.5-1.6 7-8.7 7-13.6 8.3-.5 10.4-7.8 10.4-9.9"/></svg>