<svg version="1.1" xmlns="http://www.w3.org/2000/svg" x="0" y="0" width="60.9" height="142.6" viewBox="0 0 60.9 142.6" xml:space="preserve"><path d="M46.7 141.3c-.7.2-1.4.4-2.1.5-2.1.5-4.2.9-6.4.8-2.3-.1-4.5-.6-6.6-1.8-.5-.3-1-.7-1.4-1-.6-.5-.9-1.2-1.1-1.9l-.3-.6c-.8-.9-1.3-2-1.1-3.2.1-1.1-.1-2-.4-3-.9-3.5-1.8-7-2.6-10.5 0-.2-.1-.3-.2-.4-.5-.8-.9-1.6-.6-2.6v-.4c-1.2-4.4-2.3-8.8-3.5-13.1-.1-.2-.1-.5-.2-.7-.1-.4-.2-.7-.5-1.1-.4-.5-.5-1.1-.3-1.7v-.4c-1-4-2-8-3.1-11.9 0-.1 0-.2-.1-.3-.7-.8-.7-1.9-.9-2.8-.1-.4.1-.9.5-1.1.7-.7 1.5-1.3 2.3-1.9 2.3-1.5 4.7-2.6 7.3-3.5.1 0 .2-.1.3-.1-.1-.2-.1-.4-.2-.6-4.4-13.1-8.7-26.3-13.1-39.4C8.1 26.2 4.1 14 .1 1.8 0 1.4 0 1.1.3.8.8 0 2-.2 2.8.3c.2 0 .3.2.3.4C4.4 4.5 5.7 8.3 7 12.2c3.4 10.2 6.8 20.3 10.1 30.5 3.8 11.5 7.6 22.9 11.3 34.4 0 .1.1.2.1.4.2-.1.4-.1.5-.1 2.4-.7 4.8-1.3 7.3-1.5.8-.1 1.7 0 2.5.1.4 0 .8.2 1.2.4.4.1.6.4.7.8.3.9.5 1.8.8 2.6 1.5 3.7 2.9 7.4 4.4 11.1.2.5.3.9.8 1.3.4.3.4.8.4 1.3 0 .2 0 .4.1.6 1.5 3.8 3 7.7 4.5 11.5.2.5.4 1 .6 1.6.2.5.4 1 .8 1.4.5.5.6 1.1.6 1.8 0 .2 0 .4.1.6 1.7 4.1 3.3 8.3 5 12.4.1.2.2.3.3.4 1 1.1 1.5 2.4 1.3 3.9v.3c.3 1.3.2 2.6-.4 3.8-1 2.1-2.6 3.8-4.5 5.2-2.2 1.7-4.7 2.8-7.3 3.8-.1 0-.2.1-.3.2-.2 0-.7.1-1.2.3"/></svg>