<svg version="1.1" xmlns="http://www.w3.org/2000/svg" xmlns:xlink="http://www.w3.org/1999/xlink" x="0" y="0" width="498.5" height="192" viewBox="0 0 498.5 192" xml:space="preserve"><style type="text/css">.st0{fill:#b1ded3}.st1,.st2{clip-path:url(#SVGID_2_);fill:#fff}.st2{clip-path:url(#SVGID_4_)}</style><path class="st0" d="M439 0L8.9 4.7 0 110.6l8.9 18 153.9 4.9L167 192h319l12.5-93.7H444z"/><defs><path id="SVGID_1_" d="M0 0h498.5v192H0z"/></defs><clipPath id="SVGID_2_"><use xlink:href="#SVGID_1_" overflow="visible"/></clipPath><path class="st1" d="M366.9 58.8v18.9c0 2.3.5 2.8 2.9 2.9.9 0 1.8 0 2.7.1.4 0 .8.3.8.8s-.4.6-.8.7c-.5.1-1 .2-1.5.2h-10.2c-.9 0-2.4.2-2.4-1.1 0-1.1 1.4-.7 2.3-.7 4.7 0 4.4.2 4.4-4.5v-38c0-2.5-.3-2.8-2.8-2.9h-2.8c-.6 0-1.2-.2-1.2-1 0-.7.5-.9 1.1-.9 2.5 0 4.9-.1 7.4 0 1.5.1 2.1 1.5 2.8 2.5 4 5.9 7.8 11.9 11.7 17.9 4.4 6.7 8.8 13.4 13.1 20.1.7 1.1 1.5 2.2 2.2 3.3.3.4.5.9 1 .8.7-.2.4-.9.4-1.3 0-7.1-.1-14.3.1-21.4.2-5.9-.2-11.7-.1-17.6.1-2-.4-2.4-2.4-2.4h-2.4c-.6 0-1.3-.2-1.3-.9 0-.8.7-.9 1.4-1H405.1c.7 0 1.7-.1 1.7.9s-.9.9-1.7 1l-3.6.3c-.9.1-1.3.5-1.4 1.4v40.8c-.1 2.6.1 2.8 2.8 2.9 1 0 2 0 3 .1.5 0 1 .3 1 .9 0 .6-.5.9-.9.9-2.8.1-5.6.4-8.3-.3-.4-.1-.7-.3-.9-.6-2.5-3.8-5-7.6-7.6-11.4-3.4-5.2-6.8-10.3-10.2-15.5-2.6-3.9-5.2-7.9-7.8-11.8-1-1.5-2-3-3-4.4-.2-.3-.5-.8-1-.6-.5.2-.5.7-.5 1.1v6.6c.2 4.2.2 8.7.2 13.2M368.3 146.2v18.9c0 2.6.5 3.1 3.1 3.1h2c.4 0 .9.2.9.7 0 .6-.5.8-1 .8h-13c-.4 0-.9-.2-.9-.7 0-.5.4-.7.9-.7 1.2 0 2.3 0 3.5-.1 1.8 0 2.4-.6 2.4-2.4v-41c0-1.5-.7-2.1-2.1-2.1h-3.5c-.6 0-1.2-.2-1.2-.9 0-.8.6-.9 1.2-.9h7.1c.9 0 1.6.6 2 1.3 6.9 10.6 13.8 21.2 20.7 31.7 2.3 3.6 4.7 7.1 7.1 10.6.3.4.5 1.1 1.2.9.8-.2.5-.9.5-1.5V125c0-1.8-.4-2.2-2.2-2.2-.9 0-1.9 0-2.8-.1-.6 0-1.1-.3-1.1-1s.6-.8 1.1-.8h12.6c.6 0 1.3.2 1.3.9 0 .8-.7.9-1.4.9-1.2 0-2.4.1-3.6 0-1.4 0-2 .5-2 2v40.9c0 1.9.6 2.4 2.5 2.4h3.5c.5 0 1 .1 1.1.7 0 .7-.6.8-1.1.8h-7.7c-.9 0-1.3-.5-1.7-1.2-3.8-5.8-7.5-11.6-11.3-17.4-4.4-6.7-8.9-13.5-13.4-20.2-1.1-1.6-2.1-3.3-3.2-4.9-.3-.5-.6-1.2-1.3-1-.7.2-.4 1-.4 1.5.2 6.9.2 13.4.2 19.9zM280.7 82.4h-15.1c-.5 0-1.1 0-1.6-.1s-.9-.3-1-.9c0-.6.5-.8.9-.9 1.2-.1 2.4-.1 3.6-.1 1.4 0 2.1-.6 2.1-2V37.1c0-1.4-.7-2-2-2h-3.5c-.6 0-1.2-.1-1.2-.9 0-.7.6-.9 1.2-.9h31c2.6 0 2.8.2 2.8 2.8v7.2c0 .7 0 1.7-1 1.7-.9 0-.9-.9-.9-1.6v-5.5c0-2.2-.4-2.6-2.7-2.7h-19.6c-1.9 0-2.3.5-2.3 2.4v16.7c0 1.7.6 2.3 2.3 2.3h13.7c1.5 0 2.2-.7 2.3-2.2v-1.9c0-.5.2-1.1.9-1.1.8 0 1 .6 1 1.2v10.1c0 .6-.2 1.4-1 1.3-.7 0-.7-.8-.8-1.3v-.2c-.3-4-.3-4-4.3-4H274c-1.9 0-2.4.4-2.4 2.3v17.5c0 1.7.6 2.3 2.3 2.3h20.6c1.8 0 2.2-.5 2.3-2.4v-5.8c0-.7.1-1.5 1-1.5s.9.9.9 1.6c.1 2.7-.1 5.5.2 8.2.2 1.3-.7 1.9-2.5 1.9h-10.6c-1.6-.2-3.4-.2-5.1-.2M204.5 74.7v-6c0-.6.1-1.3.8-1.4.8-.1 1 .7 1.1 1.3.1.8.2 1.7 0 2.5-.3 1.9.5 3.1 1.9 4.3 5.5 4.5 11.7 6.4 18.7 5.5 3-.4 5.7-1.3 8.1-3.1 4.8-3.8 5.5-11.9-1-15.4-3.7-2-7.6-2.8-11.5-4-4.3-1.3-8.6-2.2-12.6-4.4-5.8-3.3-6.8-8.5-4.4-14.1 1.7-4.1 5.1-5.9 9.3-6.8 4.6-.9 8.9-.6 13.3.8 2.6.9 4.7 2.5 6.9 4 1.3.9 1.7.8 1.9-.8.1-.9.1-1.8.2-2.7 0-.5.2-1 .7-1.1.6-.1 1 .4 1 1 .1.8.1 1.6.1 2.4V46c0 .5-.1 1.1-.2 1.5-.1.4-.5.7-1 .7-.5-.1-.7-.5-.7-.9 0-1-.1-2 0-3 .1-1.1-.3-2-1.1-2.7-2.8-2.7-6-5-9.7-6.2-4.9-1.6-9.8-1.3-14.6.6-4 1.6-6.7 7.1-5.3 11.1.9 2.7 3 4.5 5.6 5.6 4.2 1.9 8.8 2.8 13.2 4.1 3.6 1.1 7.1 2.1 10.4 4 3.8 2.3 5.6 6.4 4.8 10.7-1.2 6.8-6 10-12.1 11-5.6.9-11 .4-16-2.3-1.5-.8-2.9-1.7-4.1-2.8-.4-.4-.8-.8-1.4-.5-.6.2-.5.9-.5 1.4v2.2c0 .7-.1 1.3-1 1.4-.9 0-.9-.7-.9-1.3 0-1.9.1-3.9.1-5.9zM91 78.3c1.7-.6 2.9-2.1 4.3-3.2.5-.4.9-1 1.6-.3.6.7.2 1.1-.3 1.6-6.7 5.9-14.5 7.9-23.2 5.9-4-.9-7.5-2.8-10.3-5.8-3.4-3.5-5.5-7.8-6.4-12.7-.9-4.5-.8-8.9.2-13.3 2.2-9.7 9.7-17.8 20.8-18 5.8-.1 10.8 2 15.3 5.5 1.1.9 1.4.8 1.7-.6.2-.9.2-1.8.1-2.7-.1-.7.2-1.4 1-1.3.7 0 .7.7.7 1.2v12.6c0 .5 0 1.1-.6 1.1-.7.1-.8-.5-.9-1.1V47c.9-5.7-3.3-7.9-7.2-10.1-7.5-4.2-16.4-3.3-22.4 2.5-3.5 3.4-6 7.6-6.8 12.5-1.1 6.7-.8 13.1 2.9 19 2.5 4 5.8 7.3 10.5 8.8 2.7.8 5.5 1.4 8.4 1.2 3.6.1 7.3-.5 10.6-2.6M443.7 145.5v19.8c0 2.4.5 2.8 2.9 2.8h3.1c.5 0 1 .2 1 .8 0 .6-.5.7-1 .8h-13.1c-.6 0-1.6.2-1.5-.9 0-.8.9-.7 1.5-.7h2.5c2.4 0 2.7-.3 2.7-2.8v-9.9-25.5c0-1.8.3-3.5 0-5.3-.2-1.2-.7-1.8-1.9-1.8h-13.5c-1.2 0-1.7.6-1.6 1.8v6.6c0 .6.1 1.4-.8 1.5-.9.1-1.1-.7-1.1-1.4v-8.7c0-1.1.6-1.6 1.7-1.7h35.8c2.3 0 2.5.3 2.6 2.5v6.9c0 .4 0 .7-.1 1.1-.1.6-.3 1.4-1.1 1.2-.8-.1-.9-.8-.8-1.5.3-1.9.1-3.8.1-5.7 0-2.4-.3-2.7-2.7-2.7h-11.5c-3 0-3.1.1-3.1 3.1-.1 6.7-.1 13.2-.1 19.7M329.6 57.9v19.8c0 2.3.5 2.7 2.8 2.8h2.7c.6 0 1.3.1 1.3.8 0 .8-.7 1-1.3 1H322.9c-.8 0-2 .1-2-1 0-.9 1.2-.8 1.9-.9h2.2c2.3 0 2.7-.5 2.7-2.8v-4.4-35.3c0-2.3-.3-2.6-2.6-2.8-.9-.1-1.9 0-2.8 0-.8.1-1.5-.2-1.5-1-.1-.8.7-1 1.3-1h13.2c.6 0 1.2.2 1.2 1 0 .7-.6.9-1.2.9-1.2 0-2.3 0-3.5.1-1.5.1-2.2.9-2.1 2.5 0 6.9-.1 13.6-.1 20.3M333.2 145.4v-19.5c0-2.6-.4-3-3-3-1 0-2 0-3-.1-.5 0-.9-.3-.9-.9 0-.6.5-.8 1-.9.4-.1.8-.1 1.3-.1h11c.9 0 2.3-.4 2.3 1 0 1.3-1.4.8-2.3.9-.9.1-1.8 0-2.7 0-1.3 0-1.9.6-1.9 1.9V165c0 2.7.4 3.1 3.1 3.1h2.7c.6 0 1.3 0 1.2.8 0 .7-.7.7-1.2.7h-12.9c-.6 0-1.5.1-1.5-.8s.8-.8 1.4-.8h2.4c2.8 0 3.2-.4 3.2-3.1-.2-6.4-.2-13-.2-19.5M305.7 147.5c-.2 3.8-1.2 7.4-3 10.6-3.7 6.6-9.3 10.3-17.1 10.4H284c-5.7.4-10.8-1.6-14.9-5.9-3.1-3.3-5-7.2-5.9-11.7-1-5-.6-9.8.9-14.6 1.8-5.5 5.5-9.7 10.8-12.3 5.2-2.5 10.7-2.6 16.1-1.1 5.3 1.5 9.3 5.1 11.9 10.1 2.5 4.7 3.1 9.5 2.8 14.5m.2-12.7c-1.9-5.1-5.2-9.3-10-11.9-4.5-2.4-9.4-3.1-14.5-2.6-9.7 1-16.4 7.1-19.2 15.8-2.2 6.9-2 13.9.8 20.6 2.2 5.3 5.8 9.4 11 11.7 4.1 1.8 8.3 2.5 12.9 2 5.2-.6 9.7-2.3 13.3-6 5.2-5.2 7.6-11.6 7.2-19.3.5-3.3-.2-6.8-1.5-10.3M241 139.7c-1.3 5.5-4.7 8.5-10.4 8.7-4.9.1-9.9.1-14.8 0-1.8 0-2.2-.5-2.2-2.3v-10.5-10.4c0-1.9.4-2.3 2.3-2.3 5.1 0 10.3-.2 15.4.1 4.7.2 8.5 3 9.5 8 .6 2.8.8 5.7.2 8.7m1.7-9c-.5-2.4-1.5-4.7-3.4-6.4-2.6-2.3-5.7-3.4-9.3-3.3h-23.6c-.6 0-1.4.1-1.4.9s.7.9 1.4.9h2.8c2.5 0 2.7.2 2.7 2.7v39.7c0 2.6-.4 3-3 3h-2.8c-.5 0-1.2.1-1.2.8 0 .7.6.8 1.2.8h14c.5 0 1.1-.1 1.1-.8 0-.6-.6-.7-1.1-.7h-3.8c-2.3 0-2.8-.5-2.8-2.8v-12.8c0-2.1.3-2.4 2.5-2.4 5.4-.1 10.8.2 16.2-.3 4.2-.4 8.2-3.3 9.7-7.2 1.5-4 1.5-8.1.8-12.1M188.1 80.7c-.9.7-1.8 1.5-2.6 2.2-1.7 1.5-3.4 3-5.2 4.3-5.7 4.1-11.5 6.8-17.3 7.8-.7.1-1.5.2-2.3.3-.1 0-.3 0-.4.1-9 .9-21.9-1.9-36.2-16.9l33.8-54.7 30.2 56.9zm-33.2-56.8l-33.2 53.7-9.4 1.2 33.2-51.4 9.4-3.5zm-42.4 57.4l9.6-1.2c8.5 9 16.6 13.8 23.8 16.2-12.1-1.1-24.2-6.4-33.4-15m78.6-.3l-32.2-60.6-.3.2-.2-.6-14.4 5.4v.1h-.1l-35.5 55 .4.2-.3.2C119.4 92.4 135.2 99 150.4 99c3.4 0 6.8-.4 10.1-1.1 1.1-.1 2.1-.2 3.1-.4 6.1-1.1 12.3-3.9 18.3-8.3 1.9-1.4 3.7-2.9 5.4-4.5 1.2-1.1 2.5-2.2 3.8-3.2l-.3-.3.3-.2z"/></svg>