<svg version="1.1" xmlns="http://www.w3.org/2000/svg" x="0" y="0" width="404.2" height="149.7" viewBox="0 0 404.2 149.7" xml:space="preserve"><g id="logo-text"><path d="M308.8 38.5v18.8c0 2.3.5 2.8 2.9 2.9.9 0 1.8 0 2.7.1.4 0 .8.3.8.8 0 .4-.4.6-.7.7-.5.1-1 .2-1.5.2h-10.2c-.9 0-2.4.2-2.3-1.1 0-1.1 1.4-.7 2.2-.7 4.7 0 4.4.2 4.4-4.5V18c0-2.4-.3-2.8-2.8-2.9h-2.8c-.6 0-1.2-.2-1.2-1 0-.7.5-.9 1.1-.9 2.4 0 4.9-.1 7.3 0 1.5.1 2.1 1.5 2.8 2.5 3.9 5.9 7.8 11.8 11.7 17.8 4.4 6.7 8.7 13.3 13 20 .7 1.1 1.4 2.2 2.2 3.2.3.4.5.9 1 .8.7-.2.4-.9.4-1.3 0-7.1-.1-14.2.1-21.3.2-5.8-.2-11.7-.1-17.5.1-2-.4-2.4-2.4-2.4h-2.3c-.6 0-1.3-.2-1.3-.9 0-.8.7-.9 1.3-1H346.9c.7 0 1.7-.1 1.7.9s-.9.9-1.7 1l-3.6.3c-.9.1-1.3.5-1.4 1.4v40.6c-.1 2.6.1 2.8 2.7 2.8 1 0 2 0 3 .1.5 0 .9.3 1 .9 0 .6-.5.9-.9.9-2.8.1-5.5.4-8.3-.3-.4-.1-.7-.3-.9-.6-2.5-3.8-5-7.5-7.5-11.3-3.4-5.1-6.7-10.3-10.1-15.4-2.6-3.9-5.1-7.8-7.7-11.7-1-1.5-2-2.9-2.9-4.4-.2-.3-.5-.8-1-.6-.5.2-.5.7-.5 1.1v19.7M310.2 125.4v18.8c0 2.6.5 3.1 3.1 3.1h2c.4 0 .9.2.9.7 0 .6-.5.8-.9.8h-12.8c-.4 0-.9-.2-.9-.7 0-.5.4-.7.8-.7 1.1 0 2.3 0 3.4-.1 1.8 0 2.4-.6 2.4-2.3v-40.7c0-1.5-.7-2.1-2.1-2h-3.4c-.6 0-1.2-.2-1.2-.9 0-.8.6-.9 1.2-.9h7c.9 0 1.5.6 2 1.3 6.9 10.5 13.7 21 20.6 31.5 2.3 3.5 4.7 7 7.1 10.5.3.4.5 1 1.2.9.8-.2.5-.9.5-1.5v-38.6c0-1.8-.4-2.2-2.2-2.2-.9 0-1.9 0-2.8-.1-.5 0-1-.3-1.1-1 0-.7.6-.8 1.1-.8h12.5c.6 0 1.3.2 1.3.9 0 .8-.7.9-1.4.9-1.2 0-2.4.1-3.6 0-1.4 0-2 .5-2 2V145c0 1.8.6 2.4 2.5 2.4h3.4c.5 0 1 .1 1.1.7 0 .7-.6.8-1.1.8h-7.7c-.8 0-1.3-.5-1.7-1.2-3.7-5.8-7.5-11.5-11.2-17.3-4.4-6.7-8.8-13.4-13.3-20.1-1.1-1.6-2.1-3.2-3.2-4.8-.3-.5-.6-1.2-1.2-1-.7.2-.4 1-.4 1.5.1 6.5.1 12.9.1 19.4zM223.2 62h-15c-.5 0-1 0-1.6-.1-.5-.1-.9-.3-.9-.9 0-.6.5-.8.9-.9 1.2-.1 2.4-.1 3.6-.1 1.4 0 2.1-.6 2.1-2V17c0-1.4-.7-2-2-2h-3.4c-.6 0-1.2-.1-1.2-.9 0-.7.6-.9 1.2-.9H237.7c2.5 0 2.8.2 2.8 2.8v7.2c0 .7 0 1.7-1 1.6-.9 0-.9-.9-.9-1.6v-5.5c0-2.2-.4-2.6-2.7-2.6h-19.4c-1.8 0-2.3.5-2.3 2.3V34c0 1.7.6 2.3 2.3 2.3h13.6c1.5 0 2.2-.7 2.2-2.2v-1.9c0-.5.2-1.1.8-1.1.8 0 .9.6 1 1.2v10c0 .6-.2 1.4-1 1.3-.7 0-.7-.8-.8-1.3v-.2c-.3-3.9-.3-3.9-4.3-3.9h-11.4c-1.9 0-2.4.4-2.4 2.2v17.4c0 1.7.6 2.3 2.3 2.3H237c1.8 0 2.2-.5 2.2-2.4v-5.8c0-.7.1-1.5 1-1.5s.9.9.9 1.6c.1 2.7-.1 5.4.2 8.1.2 1.3-.7 1.9-2.5 1.9h-15.6M147.5 54.3v-5.9c0-.6.1-1.3.7-1.4.8-.1 1 .7 1.1 1.3.1.8.2 1.7 0 2.5-.3 1.9.5 3.1 1.9 4.3 5.4 4.5 11.6 6.3 18.6 5.5 3-.4 5.7-1.2 8-3.1 4.8-3.8 5.5-11.8-1-15.3-3.6-2-7.6-2.8-11.5-4-4.2-1.3-8.6-2.2-12.5-4.4-5.8-3.3-6.8-8.4-4.4-14 1.7-4.1 5-5.9 9.3-6.7 4.5-.9 8.9-.6 13.2.8 2.6.8 4.7 2.5 6.9 3.9 1.3.9 1.6.8 1.9-.8.1-.9.1-1.8.2-2.6 0-.5.2-1 .7-1 .6-.1 1 .4 1 1 .1.8.1 1.6.1 2.3v9.2c0 .5-.1 1-.2 1.5-.1.4-.5.7-1 .7-.5-.1-.7-.5-.7-.9 0-1-.1-2 0-3 .1-1.1-.3-2-1-2.7-2.8-2.7-5.9-4.9-9.7-6.1-4.9-1.6-9.8-1.3-14.5.6-4 1.6-6.7 7-5.3 11 .9 2.7 3 4.4 5.6 5.6 4.2 1.9 8.7 2.8 13.1 4.1 3.5 1 7.1 2.1 10.3 4 3.8 2.2 5.6 6.3 4.8 10.7-1.2 6.8-6 9.9-12 11-5.5.9-10.9.4-15.9-2.3-1.5-.8-2.9-1.6-4.1-2.8-.4-.4-.8-.8-1.4-.5-.6.2-.5.9-.5 1.4v2.2c0 .7-.1 1.3-1 1.4-.9 0-.9-.7-.9-1.3.2-2.2.2-4.2.2-6.2zM34.8 58c1.7-.6 2.9-2.1 4.2-3.2.5-.4.9-1 1.6-.3.6.7.2 1.1-.3 1.6-6.7 5.9-14.4 7.8-23.1 5.8-4-.9-7.4-2.8-10.2-5.7-3.4-3.5-5.5-7.8-6.4-12.6-.9-4.4-.8-8.9.2-13.2 2.2-9.7 9.7-17.7 20.6-17.8 5.8-.1 10.8 2 15.2 5.5 1.1.9 1.4.8 1.7-.6.2-.9.2-1.7.1-2.6-.1-.7.2-1.3 1-1.3.7 0 .7.7.7 1.2v12.5c0 .5 0 1-.6 1.1-.7.1-.8-.5-.9-1.1v-.2c.9-5.7-3.3-7.9-7.2-10.1-7.4-4.2-16.3-3.3-22.3 2.5-3.4 3.3-5.9 7.5-6.7 12.4-1.1 6.6-.8 13 2.9 18.9 2.5 4 5.7 7.3 10.4 8.7 2.7.8 5.5 1.4 8.3 1.2 3.8-.1 7.5-.7 10.8-2.7M385.1 124.7v19.7c0 2.4.5 2.8 2.9 2.8h3.1c.5 0 1 .2 1 .8 0 .6-.5.7-1 .8h-12.9c-.6 0-1.6.2-1.5-.8 0-.8.9-.7 1.5-.7h2.5c2.4 0 2.6-.3 2.7-2.7v-9.9-25.3c0-1.8.3-3.5 0-5.3-.2-1.2-.7-1.8-1.9-1.8H368c-1.2 0-1.6.6-1.6 1.8v6.6c0 .6.1 1.4-.8 1.5-.9.1-1.1-.7-1.1-1.4v-8.6c0-1.1.6-1.6 1.7-1.6h35.5c2.2 0 2.5.3 2.5 2.5v6.9c0 .4 0 .7-.1 1.1-.1.6-.3 1.4-1.1 1.2-.7-.1-.9-.8-.8-1.5.3-1.9.1-3.8.1-5.6 0-2.4-.3-2.7-2.7-2.7h-11.4c-2.9 0-3 .1-3 3.1-.1 6.2-.1 12.6-.1 19.1M271.8 37.7v19.7c0 2.3.5 2.7 2.8 2.7h2.7c.6 0 1.3.1 1.3.8 0 .8-.7 1-1.3 1H265.1c-.8 0-2 .1-2-1 0-.9 1.2-.8 1.9-.9h2.2c2.2 0 2.7-.5 2.7-2.8v-4.4-35c0-2.2-.3-2.6-2.6-2.8-.9-.1-1.9 0-2.8 0-.8.1-1.5-.2-1.5-1-.1-.8.7-1 1.3-1h13.1c.6 0 1.2.2 1.1 1 0 .7-.6.9-1.2.9-1.1 0-2.3 0-3.4.1-1.5.1-2.1.9-2.1 2.5.1 6.8 0 13.5 0 20.2M275.3 124.6v-19.4c0-2.6-.4-3-3-3-1 0-2 0-3-.1-.5 0-.9-.3-.9-.9 0-.6.5-.8.9-.9.4-.1.8-.1 1.2-.1h11c.9 0 2.3-.4 2.2 1 0 1.3-1.4.8-2.3.9-.9.1-1.8 0-2.7 0-1.3 0-1.9.6-1.9 1.9v40c0 2.7.4 3.1 3.1 3.1h2.7c.6 0 1.3 0 1.2.8 0 .7-.7.7-1.2.7h-12.8c-.6 0-1.4.1-1.5-.8 0-.9.8-.8 1.4-.8h2.3c2.8 0 3.2-.4 3.2-3.1.1-6.3.1-12.8.1-19.3M248.1 126.7c-.2 3.8-1.1 7.3-3 10.5-3.7 6.6-9.3 10.2-17 10.3h-1.6c-5.7.4-10.8-1.6-14.8-5.9-3.1-3.2-4.9-7.1-5.9-11.6-1-5-.6-9.8.9-14.5 1.8-5.5 5.4-9.6 10.7-12.2 5.2-2.5 10.7-2.6 16-1.1 5.3 1.5 9.2 5.1 11.8 10 2.5 4.7 3.1 9.5 2.9 14.5m.1-12.7c-1.9-5.1-5.2-9.2-10-11.8-4.4-2.4-9.3-3.1-14.4-2.6-9.6 1-16.3 7.1-19.1 15.7-2.2 6.8-2 13.8.8 20.5 2.2 5.2 5.7 9.3 11 11.7 4 1.8 8.3 2.5 12.8 2 5.1-.6 9.6-2.3 13.2-5.9 5.2-5.2 7.6-11.5 7.2-19.2.5-3.4-.2-6.9-1.5-10.4M183.7 118.9c-1.3 5.5-4.7 8.5-10.4 8.6-4.9.1-9.8.1-14.7 0-1.8 0-2.2-.5-2.2-2.3v-10.5-10.3c0-1.9.4-2.3 2.3-2.3 5.1 0 10.2-.2 15.3.1 4.6.2 8.4 3 9.5 8 .7 2.9.9 5.8.2 8.7m1.7-8.9c-.4-2.4-1.5-4.7-3.4-6.4-2.6-2.3-5.7-3.4-9.2-3.3h-23.5c-.6 0-1.4.1-1.4.9s.7.9 1.4.9h2.8c2.5 0 2.7.2 2.7 2.7v39.4c0 2.6-.4 3-3 3H149c-.5 0-1.2.1-1.2.8 0 .7.6.8 1.2.8h13.9c.5 0 1.1-.1 1.1-.8 0-.6-.6-.7-1.1-.7h-3.8c-2.3 0-2.8-.5-2.8-2.7v-12.7c0-2.1.3-2.4 2.5-2.4 5.4-.1 10.7.2 16.1-.3 4.1-.4 8.2-3.3 9.6-7.2 1.7-4 1.7-8 .9-12"/></g><path id="logo-cheese" d="M131.3 60.3c-.9.7-1.8 1.5-2.6 2.2-1.7 1.5-3.4 3-5.2 4.3-5.7 4.1-11.4 6.7-17.2 7.8-.7.1-1.5.2-2.3.3-.1 0-.3 0-.4.1-9 .8-21.7-1.9-35.9-16.8l33.6-54.3 30 56.4zm-33-56.4l-33 53.3-9.3 1.2 33-51 9.3-3.5zm-42.2 57l9.5-1.2c8.5 9 16.5 13.8 23.6 16.1-11.9-1.1-24-6.3-33.1-14.9m78.1-.3L102.2.4l-.3.2-.2-.6-14.3 5.3v.1h-.1L52 60l.4.2-.3.2c10.8 11.4 26.5 18 41.6 18 3.4 0 6.7-.4 10-1.1 1.1-.1 2.1-.2 3-.4 6.1-1.1 12.2-3.9 18.2-8.2 1.9-1.4 3.7-2.9 5.4-4.4 1.2-1.1 2.5-2.2 3.7-3.2l-.3-.3.5-.2z"/></svg>