<?xml version="1.0" standalone="no"?>
<!DOCTYPE svg PUBLIC "-//W3C//DTD SVG 1.1//EN" "http://www.w3.org/Graphics/SVG/1.1/DTD/svg11.dtd" >
<svg xmlns="http://www.w3.org/2000/svg">
<metadata>
Created by FontPrep 20130207 at Thu Apr 13 10:11:26 2017
 By Daniel Lucas
(c)1990 Emigre Graphics
</metadata>
<defs>
<font id="f0a9e0a0a2f77d95e4729ec3beb53060" horiz-adv-x='1024' >
  <font-face 
    font-family="MatrixBold"
    font-weight="500"
    font-stretch="normal"
    units-per-em="2048"
    panose-1="0 0 0 0 0 0 0 0 0 0"
    ascent="1638"
    descent="-410"
    x-height="850"
    cap-height="1208"
    bbox="-233 -367.459 1681 1620"
    underline-thickness="118"
    underline-position="-57"
    unicode-range="U+0009-FB02"
  />
<missing-glyph horiz-adv-x="573" 
 />
    <glyph glyph-name=".notdef" horiz-adv-x="573" 
 />
    <glyph glyph-name=".null" 
 />
    <glyph glyph-name="nonmarkingreturn" horiz-adv-x="681" 
 />
    <glyph glyph-name="NUL" 
 />
    <glyph glyph-name="NUL" 
 />
    <glyph glyph-name="HT" unicode="&#x9;" 
 />
    <glyph glyph-name="LF" unicode="&#xa;" 
 />
    <glyph glyph-name="CR" unicode="&#xd;" 
 />
    <glyph glyph-name="DLE" 
 />
    <glyph glyph-name="DC1" 
 />
    <glyph glyph-name="DC2" 
 />
    <glyph glyph-name="DC3" 
 />
    <glyph glyph-name="DC4" 
 />
    <glyph glyph-name="RS" 
 />
    <glyph glyph-name="US" 
 />
    <glyph glyph-name="space" unicode=" " horiz-adv-x="512" 
 />
    <glyph glyph-name="exclam" unicode="!" horiz-adv-x="555" 
d="M282 240q52 0 90 -38t38 -91t-37 -91t-90 -36q-53 0 -92 36q-37 36 -37 90t37 92q39 38 91 38zM365 315h-166l-60 961h287z" />
    <glyph glyph-name="quotedbl" unicode="&#x22;" horiz-adv-x="821" 
d="M594 1286q59 0 101 -50t24 -103l-125 -375l-125 375q-18 53 24 103t101 50zM227 1286q59 0 101 -50t24 -103l-125 -375l-125 375q-18 53 24 103t101 50z" />
    <glyph glyph-name="numbersign" unicode="#" horiz-adv-x="598" 
d="M393 965h-123l-30 -166h122zM190 965h-88l29 149h88l33 162h82l-33 -162h123l33 162h82l-33 -162h84l-31 -149h-84l-31 -166h84l-28 -150h-86l-33 -162h-82l33 162h-123l-33 -162h-82l33 162h-84l29 150h86z" />
    <glyph glyph-name="dollar" unicode="$" horiz-adv-x="743" 
d="M723 482q0 -144 -88 -227t-225 -83q-57 0 -113 16l-256 80l139 185l123 -160q33 -31 84 -31t96 41t45 92t-28 66l-316 162q-111 57 -110 198q0 141 90 221t213 80q41 0 102 -16l240 -72l-129 -184l-117 151q-20 29 -66 29q-45 0 -89 -34t-44 -78t45 -68l291 -162
q113 -62 113 -206zM334 1194v184h117v-184h-117zM334 -86v184h117v-184h-117z" />
    <glyph glyph-name="percent" unicode="%" horiz-adv-x="980" 
d="M647 238q0 -180 78 -181q80 1 80 181t-79 180t-79 -180zM186 972q0 -181 79 -181t79 181t-79 181t-79 -181zM726 0q-97 0 -168 71t-71 167t71 166t168 71q97 0 167 -71q70 -70 70 -166t-70 -167t-167 -71zM502 960q0 -85 -70 -156t-167 -71t-168 71t-71 168t71 167
t167 69h604v-211l-639 -905v-92h-100v272l594 838h-268q47 -65 47 -150z" />
    <glyph glyph-name="ampersand" unicode="&#x26;" horiz-adv-x="1067" 
d="M556 1124q-58 0 -111 -58q-54 -58 -54 -142t56 -160t157 -84v-66q-119 0 -200 -76q-80 -76 -80 -185q0 -111 57 -185t164 -74q78 0 139 74v494h375l-121 -121v-451q-68 -43 -102 -60q-34 -18 -111 -36q-78 -18 -179 -18t-210 34q-109 35 -197 119t-88 198q0 113 66 199
t172 125q-160 88 -160 268t140 252q118 60 292 60q173 0 316 -80v-268l-191 190q-36 35 -54 43t-76 8z" />
    <glyph glyph-name="quotesingle" unicode="'" horiz-adv-x="466" 
d="M233 1286q59 0 101 -50t24 -103l-125 -375l-124 375q-18 53 23 103q42 50 101 50z" />
    <glyph glyph-name="parenleft" unicode="(" horiz-adv-x="593" 
d="M86 604q0 498 453 776l39 -59q-140 -180 -194 -334t-54 -383t54 -383t194 -334l-39 -59q-453 278 -453 776z" />
    <glyph glyph-name="parenright" unicode=")" horiz-adv-x="593" 
d="M508 604q0 -498 -451 -776l-41 59q139 180 194 334q54 154 54 383t-54 383t-194 334l41 59q451 -278 451 -776z" />
    <glyph glyph-name="asterisk" unicode="*" horiz-adv-x="692" 
d="M242 1006l-174 57l67 147l162 -114l-14 180h125l-13 -180l162 114l66 -147l-177 -57l177 -58l-66 -147l-162 114l13 -182h-125l14 182l-162 -114l-67 147z" />
    <glyph glyph-name="plus" unicode="+" horiz-adv-x="747" 
d="M303 410h-209v141h209v209h141v-209h209v-141h-209v-209h-141v209z" />
    <glyph glyph-name="comma" unicode="," horiz-adv-x="555" 
d="M248 240q76 0 114 -68t-2 -117l-239 -342v398q0 51 38 90t89 39z" />
    <glyph glyph-name="hyphen" unicode="-" horiz-adv-x="679" 
d="M586 410h-492v141h492v-141z" />
    <glyph glyph-name="period" unicode="." horiz-adv-x="555" 
d="M385 120q0 -56 -40 -96t-97 -40t-97 40t-40 96t40 96t97 40t97 -40t40 -96z" />
    <glyph glyph-name="slash" unicode="/" horiz-adv-x="733" 
d="M227 0h-194l516 1294h194z" />
    <glyph glyph-name="zero" unicode="0" horiz-adv-x="1054" 
d="M354 434q0 -369 174 -368q172 0 172 368t-173 369q-173 0 -173 -369zM528 -35q-192 0 -330 138t-139 331t137 330t332 137t330 -137q137 -137 137 -330t-137 -331t-330 -138z" />
    <glyph glyph-name="one" unicode="1" horiz-adv-x="649" 
d="M78 866h493l-120 -121v-624l120 -121h-493l121 121v624z" />
    <glyph glyph-name="two" unicode="2" horiz-adv-x="854" 
d="M472 907q122 0 195 -77q73 -76 73 -186t-105 -189l-375 -279h412l94 96v-272h-721v121l385 344q64 59 64 127t-43 120t-115 52q-35 0 -68 -21l-98 -61l-61 59l153 107q88 59 210 59z" />
    <glyph glyph-name="three" unicode="3" horiz-adv-x="784" 
d="M156 344q114 0 184 79t70 155t-58 136t-142 60q-83 0 -134 -33l-60 60l50 30q106 66 254 66t247 -78q101 -79 101 -191t-64 -197t-170 -116q117 -29 195 -107t78 -198q-1 -119 -97 -203q-171 -149 -499 -149h-84v82h84q129 0 227 78t98 192q0 115 -85 194t-195 79v61z
" />
    <glyph glyph-name="four" unicode="4" horiz-adv-x="905" 
d="M479 125v356l-254 -356h254zM733 -342h-254v342h-452v68l583 809h123v-752h127v-125h-127v-342z" />
    <glyph glyph-name="five" unicode="5" horiz-adv-x="827" 
d="M203 381h166q157 0 281 -73t124 -200t-112 -232q-112 -106 -262 -162q-148 -56 -271 -56h-51v82h51q129 0 249 110t120 218q0 72 -60 112t-149 41h-193v645h641l-92 -217h-442v-268z" />
    <glyph glyph-name="six" unicode="6" horiz-adv-x="999" 
d="M512 74q74 0 116 78t42 179q0 173 -38 241q-38 67 -124 67q-54 0 -114 -39t-75 -92q-6 -16 -6 -76q0 -358 199 -358zM557 756q145 0 263 -108t118 -276t-139 -284q-139 -115 -287 -115q-207 -1 -330 135t-123 336t74 376q74 177 217 297t322 120l51 -2l20 -61
q-2 0 -44 -10q-41 -10 -71 -22q-30 -11 -80 -49q-50 -39 -86 -91t-73 -148t-55 -221q78 123 223 123z" />
    <glyph glyph-name="seven" unicode="7" horiz-adv-x="819" 
d="M53 858h752l-379 -1083v-117h-250l426 983h-428l-121 -123v340z" />
    <glyph glyph-name="eight" unicode="8" horiz-adv-x="1015" 
d="M510 688q64 0 100 65t37 155q0 90 -33 158q-34 69 -106 69t-105 -69t-33 -159q0 -91 38 -155t102 -64zM508 590q-86 0 -133 -80t-47 -183t49 -179t132 -74q83 0 132 74t49 178q0 102 -48 183t-134 81zM911 918q0 -84 -47 -157t-125 -112q211 -94 211 -325
q0 -158 -134 -254t-307 -96t-307 96t-134 254q0 233 208 321q-78 43 -124 116t-46 157q0 135 122 226t281 91t281 -91t121 -226z" />
    <glyph glyph-name="nine" unicode="9" horiz-adv-x="999" 
d="M487 803q-73 0 -115 -78q-42 -77 -42 -163q0 -134 19 -213q27 -113 140 -111q57 0 117 37q59 38 74 92q6 18 6 77q0 359 -199 359zM440 119q-142 1 -262 109q-119 108 -119 277q-1 169 139 283t289 113q207 0 329 -134q122 -135 122 -335t-73 -378t-216 -297
q-143 -120 -321 -119l-52 2l-20 63q4 2 36 8q32 5 58 15q93 35 132 82q40 47 76 101q75 112 108 333q-84 -123 -226 -123z" />
    <glyph glyph-name="colon" unicode=":" horiz-adv-x="555" 
d="M385 624q0 -56 -40 -96t-97 -41q-57 0 -97 40q-40 41 -40 97t40 96t97 40t97 -40t40 -96zM385 120q0 -56 -40 -96t-97 -40t-97 40t-40 96t40 96t97 40t97 -40t40 -96z" />
    <glyph glyph-name="semicolon" unicode=";" horiz-adv-x="555" 
d="M385 624q0 -56 -40 -96t-97 -41q-57 0 -97 40q-40 41 -40 97t40 96t97 40t97 -40t40 -96zM248 240q76 0 114 -68t-2 -117l-239 -342v398q0 51 38 90t89 39z" />
    <glyph glyph-name="less" unicode="&#x3c;" horiz-adv-x="849" 
d="M356 1157v-397l-237 342q-37 51 0 118t112 66q51 0 88 -38t37 -91zM723 1157v-397l-238 342q-37 51 0 118t113 66q51 0 88 -38t37 -91z" />
    <glyph glyph-name="equal" unicode="=" horiz-adv-x="679" 
d="M586 268h-492v142h492v-142zM586 551h-492v141h492v-141z" />
    <glyph glyph-name="greater" unicode="&#x3e;" horiz-adv-x="849" 
d="M623 1286q77 0 113 -66t-1 -118l-237 -342v397q0 53 37 91t88 38zM256 1286q76 0 113 -66t0 -118l-240 -342v397q0 51 38 90t89 39z" />
    <glyph glyph-name="question" unicode="?" horiz-adv-x="921" 
d="M384 240q52 0 90 -38t38 -91t-37 -91t-90 -36q-53 0 -91 36t-38 90t38 92t90 38zM426 334h-100v248l198 233q62 74 62 164t-72 147q-72 58 -129 58t-106 -23l-142 -151l-131 231l266 45q373 65 503 -112q81 -110 81 -211t-57 -158l-373 -391v-80z" />
    <glyph glyph-name="at" unicode="@" horiz-adv-x="1280" 
d="M301 150q0 -72 72 -72q39 0 83 31t66 79l78 293q0 47 -26 74t-72 27q-84 0 -142 -160t-59 -272zM983 518q0 160 -116 254t-251 94q-195 0 -378 -157l-19 41q225 233 477 233q140 0 242 -45q168 -74 227 -254q23 -68 23 -154t-52 -190t-134 -179q-174 -160 -347 -192
l-149 125q-40 -49 -102 -86t-130 -37t-121 68q-55 69 -55 205t120 292t249 154q59 0 103 -35t63 -82l217 113l-166 -618q121 66 210 178t89 272z" />
    <glyph glyph-name="A" unicode="A" horiz-adv-x="1091" 
d="M487 856l-141 -399h275zM231 129l127 -129h-409l131 131l385 1077h156l374 -1077l131 -131h-520l127 129l-67 205h-363z" />
    <glyph glyph-name="B" unicode="B" horiz-adv-x="1048" 
d="M416 125h131q84 0 136 47t52 141t-52 164t-136 70h-131v-422zM504 1083h-88v-411h88q80 0 126 55t46 151t-46 150q-46 55 -126 55zM504 1208q178 0 306 -81t128 -250q0 -72 -68 -149t-159 -103q117 -19 201 -111t85 -202t-71 -184q-125 -128 -379 -128h-512l129 129v950
l-129 129h469z" />
    <glyph glyph-name="C" unicode="C" horiz-adv-x="995" 
d="M51 604q0 250 162 440t391 191q117 0 186 -13t154 -59v-295l-190 193q-56 57 -144 57q-169 0 -221 -175q-43 -143 -43 -339q0 -506 258 -506q90 0 150 60l190 190v-303q-84 -45 -157 -58t-183 -14q-229 1 -391 191t-162 440z" />
    <glyph glyph-name="D" unicode="D" horiz-adv-x="1193" 
d="M416 1083v-958h131q151 0 225 143t74 336t-75 336t-224 143h-131zM590 0h-555l129 129v950l-129 129h555q236 0 394 -179t159 -425q-1 -246 -159 -425t-394 -179z" />
    <glyph glyph-name="E" unicode="E" horiz-adv-x="937" 
d="M887 0h-852l129 129v950l-129 129h852v-288l-164 163h-307v-378h213l129 131v-385l-129 129h-213v-455h307l164 164v-289z" />
    <glyph glyph-name="F" unicode="F" horiz-adv-x="897" 
d="M887 1208v-288l-164 163h-307v-378h213l129 131v-385l-129 129h-213v-451l131 -129h-512l129 129v950l-129 129h852z" />
    <glyph glyph-name="G" unicode="G" horiz-adv-x="1193" 
d="M682 1118q-162 0 -249 -156t-87 -360q0 -205 67 -349q37 -79 105 -125t148 -46t114 33t39 39v378l-121 121h496l-123 -121v-471q-96 -53 -180 -70t-209 -18q-248 1 -439 191t-192 440t191 440t440 191q106 0 178 -14t160 -58v-295l-191 193q-55 57 -147 57z" />
    <glyph glyph-name="H" unicode="H" horiz-adv-x="1220" 
d="M805 590h-389v-461l131 -129h-512l129 129v950l-129 129h512l-131 -129v-366h389v366l-131 129h512l-129 -129v-950l129 -129h-512l131 129v461z" />
    <glyph glyph-name="I" unicode="I" horiz-adv-x="614" 
d="M180 1079l-129 129h512l-129 -129v-950l129 -129h-512l129 129v950z" />
    <glyph glyph-name="J" unicode="J" horiz-adv-x="641" 
d="M467 25q0 -151 -96 -259t-238 -108h-342l182 248l150 -148q92 31 92 123v1198l-129 129h512l-131 -129v-1054z" />
    <glyph glyph-name="K" unicode="K" horiz-adv-x="1142" 
d="M778 0v125l-362 504v-500l131 -129h-512l129 129v950l-129 129h512l-131 -129v-415l428 428l-119 116h401l-477 -477l533 -731h-404z" />
    <glyph glyph-name="L" unicode="L" horiz-adv-x="878" 
d="M416 125h289l163 164v-289h-833l129 129v950l-129 129h512l-131 -129v-954z" />
    <glyph glyph-name="M" unicode="M" horiz-adv-x="1441" 
d="M305 129l131 -129h-401l129 129v950l-129 129h403l295 -524l297 524h379l-131 -129v-950l131 -129h-512l129 129v809l-360 -645l-361 645v-809z" />
    <glyph glyph-name="N" unicode="N" horiz-adv-x="1153" 
d="M305 883v-754l131 -129h-401l129 129v950l-129 129h336l501 -721v592l-129 129h400l-129 -129v-1220z" />
    <glyph glyph-name="O" unicode="O" horiz-adv-x="1208" 
d="M346 604q0 -514 258 -514t258 514t-258 514t-258 -514zM604 -35q-242 -1 -398 191t-155 448q0 256 156 448q155 192 397 191q242 0 398 -191q156 -192 155 -448q1 -256 -155 -448t-398 -191z" />
    <glyph glyph-name="P" unicode="P" horiz-adv-x="1067" 
d="M416 621h131q90 1 152 69t63 162q0 94 -62 163t-153 68h-131v-462zM547 1208q195 0 345 -94t148 -263q0 -169 -150 -262t-343 -93h-131v-367l131 -129h-512l129 129v950l-129 129h512z" />
    <glyph glyph-name="Q" unicode="Q" horiz-adv-x="1208" 
d="M346 604q0 -514 258 -514t258 514t-258 514t-258 -514zM51 604q0 256 156 448q157 192 397 191t396 -193t157 -446q0 -138 -58 -280t-177 -242h245l-211 -211l-354 94q-238 -1 -394 191t-157 448z" />
    <glyph glyph-name="R" unicode="R" horiz-adv-x="1067" 
d="M504 1083h-88v-411h88q80 0 134 64t54 148q0 83 -54 141t-134 58zM416 547v-418l131 -129h-512l129 129v950l-129 129h469q184 0 325 -84t142 -237q0 -111 -71 -187t-157 -108l254 -463l129 -129h-354l-270 547h-86z" />
    <glyph glyph-name="S" unicode="S" horiz-adv-x="862" 
d="M412 78q66 0 122 49t56 141t-72 135l-289 179q-102 63 -145 150t-43 157q0 135 93 232t278 98q51 0 112 -11l264 -45l-129 -229l-141 151q-46 29 -104 29t-102 -45t-44 -94q0 -102 113 -170l291 -178q154 -94 153 -279q0 -152 -100 -260t-305 -106q-57 0 -129 10l-275 45
l129 248l152 -170q49 -37 115 -37z" />
    <glyph glyph-name="T" unicode="T" horiz-adv-x="968" 
d="M610 1083v-954l131 -129h-512l129 129v954h-168l-163 -163v288h917v-288l-164 163h-170z" />
    <glyph glyph-name="U" unicode="U" horiz-adv-x="1142" 
d="M997 324q0 -156 -127 -258t-296 -101q-169 -1 -298 99t-129 260v755l-131 129h512l-129 -129v-755q0 -92 66 -159t158 -67q91 0 157 67t66 159v755l-129 129h409l-129 -129v-755z" />
    <glyph glyph-name="V" unicode="V" horiz-adv-x="1024" 
d="M-35 1208h522l-129 -127l213 -727l224 727l-129 127h409l-131 -131l-350 -1077h-156l-340 1077z" />
    <glyph glyph-name="W" unicode="W" horiz-adv-x="1630" 
d="M823 702l-229 -702h-156l-340 1077l-133 131h522l-129 -127l213 -727l179 578l-48 147l-131 129h521l-127 -127l213 -727l221 727l-127 127h409l-131 -131l-350 -1077h-156z" />
    <glyph glyph-name="X" unicode="X" horiz-adv-x="1110" 
d="M426 1208v-127l174 -299l219 299l-127 127h418l-131 -131l-307 -415l315 -531l131 -131h-426v127l-184 311l-225 -309l127 -129h-418l131 131l315 428l-307 518l-131 131h426z" />
    <glyph glyph-name="Y" unicode="Y" horiz-adv-x="1032" 
d="M403 545l-305 532l-133 131h547l-127 -127l213 -393l213 393l-129 127h401l-131 -131l-297 -532v-416l129 -129h-512l131 129v416z" />
    <glyph glyph-name="Z" unicode="Z" horiz-adv-x="892" 
d="M43 1208h821l-512 -1083h334l164 164v-289h-821l512 1083h-334l-164 -163v288z" />
    <glyph glyph-name="bracketleft" unicode="[" horiz-adv-x="477" 
d="M307 -47h137v-82h-346v1466h346v-82h-137v-1302z" />
    <glyph glyph-name="backslash" unicode="\" horiz-adv-x="86" 
 />
    <glyph glyph-name="bracketright" unicode="]" horiz-adv-x="477" 
d="M170 -47v1302h-135v82h346v-1466h-346v82h135z" />
    <glyph glyph-name="asciicircum" unicode="^" 
 />
    <glyph glyph-name="underscore" unicode="_" horiz-adv-x="956" 
d="M956 -125h-960v125h960v-125z" />
    <glyph glyph-name="grave" unicode="`" horiz-adv-x="897" 
d="M35 1389h2q25 20 59 18t58 -25l262 -260l-350 144q-37 14 -49 55q-11 41 18 68z" />
    <glyph glyph-name="a" unicode="a" horiz-adv-x="937" 
d="M563 436h-86q-84 0 -133 -55t-49 -160q0 -39 27 -65t49 -27q22 0 43 10l149 111v186zM452 784q-58 0 -108 -49l-190 -182v260q116 80 286 80t272 -67t103 -179v-526l123 -121h-375v139l-211 -155q-35 -25 -86 -25q-80 0 -148 81t-67 181q0 139 115 226t268 88h129v112
q0 57 -26 97q-27 40 -85 40z" />
    <glyph glyph-name="b" unicode="b" horiz-adv-x="1019" 
d="M550 98q70 0 96 80t26 255t-26 255t-96 80t-116 -38t-63 -101v-389q16 -66 62 -104t117 -38zM616 -37q-147 0 -256 154l-241 -154v1098l-119 119l371 116v-532q41 59 107 99t138 40q156 0 254 -146t99 -323q0 -111 -41 -217q-40 -106 -124 -180t-188 -74z" />
    <glyph glyph-name="c" unicode="c" horiz-adv-x="858" 
d="M497 784q-43 0 -67 -10q-77 -31 -83 -240q-1 -36 -1 -100q0 -184 47 -266t161 -82t187 84l70 -70q-78 -72 -152 -100t-182 -27q-168 1 -297 141t-129 321t128 319t298 139q111 0 181 -14t149 -66v-260l-182 182q-31 31 -58 40t-70 9z" />
    <glyph glyph-name="d" unicode="d" horiz-adv-x="1021" 
d="M481 98q59 0 106 38q46 38 62 104v389q-16 63 -62 101q-45 38 -105 38t-89 -43t-38 -110t-9 -183t9 -181q21 -153 126 -153zM649 0v104q-41 -59 -107 -100t-139 -41q-155 -1 -253 147t-99 324q1 176 99 322t253 147q74 0 140 -40t106 -99v297l-119 119l371 116v-1175
l121 -121h-373z" />
    <glyph glyph-name="e" unicode="e" horiz-adv-x="952" 
d="M472 795q-62 0 -94 -71t-32 -173h262q20 31 20 79t-46 106q-48 58 -110 59zM468 -27q-165 1 -291 139t-126 324t122 326t303 139q181 0 303 -126t122 -331h-555q0 -158 13 -217t37 -83q56 -56 148 -56t148 26q57 26 77 45q19 19 44 52l66 -68q-66 -80 -156 -125t-255 -45
z" />
    <glyph glyph-name="f" unicode="f" horiz-adv-x="641" 
d="M424 858h205v-106h-205v-631l121 -121h-496l121 121v596h-137l137 139v55q0 147 96 256t240 109h323l-174 -238l-139 140q-92 -31 -92 -125v-195z" />
    <glyph glyph-name="g" unicode="g" horiz-adv-x="870" 
d="M555 596q0 70 -35 121t-94 51t-95 -52t-36 -120t36 -120t95 -52t94 51t35 121zM365 227h61q236 0 357 -125q67 -68 67 -162t-68 -162q-122 -120 -356 -120h-432l176 240l131 -131h125q215 0 215 112q0 63 -63 92t-152 29h-229v375q-66 35 -110 91t-44 130q0 127 117 195
t266 67h475l-127 -145q33 -61 33 -117q0 -118 -121 -190t-260 -72l-61 4v-111z" />
    <glyph glyph-name="h" unicode="h" horiz-adv-x="1032" 
d="M659 0v655q0 27 -17 53t-59 26t-108 -66l-84 -84v-463l121 -121h-496l123 121v940l-119 119l371 116v-581l74 73q105 106 209 106t171 -64q67 -65 66 -140v-569l121 -121h-373z" />
    <glyph glyph-name="i" unicode="i" horiz-adv-x="555" 
d="M296 1200q52 0 89 -37t37 -89t-38 -89t-89 -37t-88 37t-37 88t37 89t89 38zM422 121l121 -121h-496l123 121v518l-119 117l371 127v-762z" />
    <glyph glyph-name="j" unicode="j" horiz-adv-x="563" 
d="M455 25q-1 -151 -97 -259t-239 -108h-324l174 240l140 -140q92 31 92 123v758l-117 117l371 127v-858zM310 1200q52 0 89 -38t37 -89t-37 -88t-88 -37t-89 37t-38 89t37 89t89 37z" />
    <glyph glyph-name="k" unicode="k" horiz-adv-x="1067" 
d="M702 0v98l-311 310v-287l121 -121h-496l123 121v932l-119 118l371 125v-854l324 324l-101 100h402l-391 -389l477 -477h-400z" />
    <glyph glyph-name="l" unicode="l" horiz-adv-x="555" 
d="M416 121l123 -121h-496l121 121v932l-117 118l369 125v-1175z" />
    <glyph glyph-name="m" unicode="m" horiz-adv-x="1468" 
d="M665 897q83 0 139 -61t62 -131l76 75q117 117 212 117t144 -76t50 -166v-534l120 -121h-374v664q0 16 -16 32q-45 46 -126 -37l-84 -84v-454l121 -121h-373v664q0 16 -15 32q-44 47 -126 -37l-84 -84v-454l121 -121h-496l123 121v518l-119 117l371 127v-176l74 73
q117 117 200 117z" />
    <glyph glyph-name="n" unicode="n" horiz-adv-x="1067" 
d="M696 903q116 0 183 -73q68 -73 67 -148v-561l121 -121h-375v655q0 31 -21 60q-22 29 -71 29t-125 -76l-84 -84v-463l121 -121h-496l123 121v518l-119 117l371 127v-168l74 73q115 115 231 115z" />
    <glyph glyph-name="o" unicode="o" horiz-adv-x="1038" 
d="M346 434q0 -369 172 -368q174 0 174 368t-173 369q-173 0 -173 -369zM519 -35q-194 0 -331 138t-137 331t137 330t331 137t331 -137t137 -330t-137 -331t-331 -138z" />
    <glyph glyph-name="p" unicode="p" horiz-adv-x="1019" 
d="M550 100q70 0 96 80t26 255t-26 255t-96 80t-116 -38t-63 -101v-389q16 -66 62 -104t117 -38zM631 -35q-89 0 -155 41t-105 100v-327l121 -121h-496l123 121v860l-119 117l371 127v-119q41 59 107 100t138 41q156 0 254 -146t99 -323q0 -111 -41 -217q-40 -106 -124 -180
t-173 -74z" />
    <glyph glyph-name="q" unicode="q" horiz-adv-x="1007" 
d="M482 768q-60 0 -89 -43t-38 -110t-9 -183t9 -182q21 -152 122 -152q63 0 110 38q46 38 62 104v389q-16 63 -62 101q-45 38 -105 38zM403 -37q-155 -1 -253 147t-99 324q1 176 99 322t250 147q152 0 259 -151l242 151v-1124l121 -121h-494l121 121v325q-41 -59 -107 -100
t-139 -41z" />
    <glyph glyph-name="r" unicode="r" horiz-adv-x="784" 
d="M682 887q31 0 84 -13v-346l-211 211l-164 -180v-438l121 -121h-496l123 121v518l-119 117l371 127v-166l74 80q86 90 217 90z" />
    <glyph glyph-name="s" unicode="s" horiz-adv-x="724" 
d="M387 -41q-56 0 -98 12l-15 2l-256 82l140 185l125 -162q31 -31 82 -31t97 42t46 91t-31 68l-315 162q-111 57 -111 198t90 220t213 79q49 0 103 -14l239 -72l-129 -184l-116 151q-21 27 -67 27t-89 -33q-43 -32 -43 -76t45 -69l291 -162q112 -63 112 -207t-88 -226
q-88 -83 -225 -83z" />
    <glyph glyph-name="t" unicode="t" horiz-adv-x="649" 
d="M416 82q106 0 174 88l59 -59q-41 -84 -109 -116t-128 -32q-111 1 -180 63t-68 160v506h-156l408 408v-242h239v-106h-239v-670z" />
    <glyph glyph-name="u" unicode="u" horiz-adv-x="1011" 
d="M371 211q0 -27 17 -51t58 -25q41 0 109 66l84 82v356l-119 117l371 127v-762l121 -121h-373v152l-74 -74q-105 -104 -213 -104t-171 66q-62 67 -62 138v461l-119 117l371 127v-672z" />
    <glyph glyph-name="v" unicode="v" horiz-adv-x="948" 
d="M104 729l-120 121h520l-119 -119l170 -457l170 457l-119 119h375l-121 -121l-301 -729h-153z" />
    <glyph glyph-name="w" unicode="w" horiz-adv-x="1433" 
d="M657 731l-118 119h520l-121 -119l137 -444l137 444l-120 119h376l-122 -121l-265 -729h-155l-201 549l-199 -549h-155l-265 727l-122 123h520l-119 -119l135 -444z" />
    <glyph glyph-name="x" unicode="x" horiz-adv-x="937" 
d="M362 393l-239 334l-123 123h520l-119 -119l117 -168l154 170l-117 117h393l-123 -123l-237 -260l246 -344l122 -123h-520l119 119l-127 178l-162 -178l119 -119h-393l123 123z" />
    <glyph glyph-name="y" unicode="y" horiz-adv-x="937" 
d="M416 2l-312 727l-120 121h503l-120 -119l182 -414l168 414l-119 119h375l-121 -121l-391 -950l119 -121h-420l166 121z" />
    <glyph glyph-name="z" unicode="z" horiz-adv-x="782" 
d="M51 850h692l-399 -741h223l164 163v-272h-694l401 743h-223l-164 -163v270z" />
    <glyph glyph-name="braceleft" unicode="{" horiz-adv-x="665" 
d="M494 326q0 -178 28 -270t109 -185l-21 -47q-196 164 -272 270t-76 238l8 86l-233 186l233 187l-8 86q0 131 77 237t271 270l21 -47q-80 -92 -109 -184t-28 -270l4 -99l-232 -180l232 -178q-4 -88 -4 -100z" />
    <glyph glyph-name="bar" unicode="|" 
 />
    <glyph glyph-name="braceright" unicode="}" horiz-adv-x="665" 
d="M172 883q0 178 -29 270t-108 184l22 47q195 -164 271 -270t75 -237l-8 -86l236 -187l-236 -186l8 -86q1 -132 -75 -238t-271 -270l-22 47q81 92 109 184t28 271l-2 100l229 178l-229 180q2 86 2 99z" />
    <glyph glyph-name="asciitilde" unicode="~" 
 />
    <glyph glyph-name="DEL" 
 />
    <glyph glyph-name="nbspace" unicode="&#xa0;" horiz-adv-x="512" 
 />
    <glyph glyph-name="exclamdown" unicode="&#xa1;" horiz-adv-x="555" 
d="M291 696q-53 0 -91 38t-38 90t38 90t91 38t90 -38t37 -90t-37 -90t-90 -38zM147 -342l60 963h168l59 -963h-287z" />
    <glyph glyph-name="cent" unicode="&#xa2;" horiz-adv-x="886" 
d="M572 303q112 0 188 86l69 -70q-79 -71 -151 -99t-182 -27q-168 0 -297 140t-129 320q0 179 128 319t298 140q112 0 182 -14t147 -68v-258l-182 182q-31 31 -57 40q-26 10 -70 10q-43 0 -74 -13t-49 -61t-23 -106t-5 -208q0 -149 47 -231q48 -82 160 -82zM463 1194v184
h117v-184h-117zM463 -86v184h117v-184h-117z" />
    <glyph glyph-name="sterling" unicode="&#xa3;" horiz-adv-x="913" 
d="M399 688h205v-108h-205v-455h332l164 164v-289h-844l96 96v451h-139l139 137v160q-1 147 95 256t239 108h324l-174 -239l-139 141q-92 -31 -93 -125v-297z" />
    <glyph glyph-name="currency" unicode="&#xa4;" horiz-adv-x="835" 
d="M430 1243q116 0 230 -89t114 -214t-94 -238l-442 -526h450l96 96v-272h-739v119l428 592q55 81 55 157t-58 155t-157 79q-41 0 -71 -17l-107 -63l-51 59l152 109q78 53 194 53z" />
    <glyph glyph-name="yen" unicode="&#xa5;" horiz-adv-x="1118" 
d="M78 641v123h233l-180 313l-131 131h547l-129 -127l213 -393l215 393l-129 127h401l-129 -131l-174 -313h234v-123h-306l-49 -90h355v-125h-359v-297l129 -129h-512l129 129v297h-358v125h356l-51 90h-305z" />
    <glyph glyph-name="brokenbar" unicode="&#xa6;" horiz-adv-x="552" 
d="M217 768v598h127v-598h-127zM217 0v598h127v-598h-127z" />
    <glyph glyph-name="section" unicode="&#xa7;" horiz-adv-x="999" 
d="M512 74q74 0 116 78t42 179q0 173 -38 241q-38 67 -124 67q-54 0 -114 -39t-75 -92q-6 -16 -6 -76q0 -358 199 -358zM557 756q145 0 263 -108t118 -276t-139 -284q-139 -115 -287 -115q-207 -1 -330 135t-123 336t74 376q74 177 217 297t322 120l51 -2l20 -61
q-2 0 -44 -10q-41 -10 -71 -22q-30 -11 -80 -49q-50 -39 -86 -91t-73 -148t-55 -221q78 123 223 123z" />
    <glyph glyph-name="dieresis" unicode="&#xa8;" horiz-adv-x="618" 
d="M141 1399q47 0 81 -34t34 -81t-34 -81t-81 -34t-81 34t-33 81q0 47 33 81q34 34 81 34zM459 1397q47 0 81 -34t34 -81t-34 -81t-81 -34t-81 34t-34 81t34 81t81 34z" />
    <glyph glyph-name="copyright" unicode="&#xa9;" horiz-adv-x="1310" 
d="M346 608q0 138 87 244t210 106t201 -40v-173l-111 111q-27 31 -80 31q-137 -1 -137 -277t137 -276q49 0 80 31l111 110v-176q-74 -39 -197 -39t-212 104t-89 244zM160 604q0 -207 145 -351t351 -144t352 145q145 145 145 351t-146 351q-145 146 -351 146t-351 -146
t-145 -352zM655 1208q250 0 427 -177q178 -177 178 -427t-178 -427t-427 -177q-250 0 -427 178t-177 427t177 426t427 177z" />
    <glyph glyph-name="ordfeminine" unicode="&#xaa;" 
 />
    <glyph glyph-name="guillemotleft" unicode="&#xab;" horiz-adv-x="716" 
d="M672 172v-35l-324 297l324 297v-37l-125 -260zM365 172v-35l-324 297l324 297v-37l-125 -260z" />
    <glyph glyph-name="logicalnot" unicode="&#xac;" 
 />
    <glyph glyph-name="registered" unicode="&#xae;" horiz-adv-x="1310" 
d="M639 868h-47v-219h47q43 0 72 34t29 78t-30 76q-30 31 -71 31zM592 573v-225l78 -76h-297l73 76v518l-73 78h266q102 0 180 -46t78 -134q0 -59 -38 -102t-85 -62l137 -252l78 -76h-205l-149 301h-43zM160 604q0 -207 145 -351t351 -144t352 145q145 145 145 351t-146 351
q-145 146 -351 146t-351 -146t-145 -352zM655 1208q250 0 427 -177q178 -177 178 -427t-178 -427t-427 -177q-250 0 -427 178t-177 427t177 426t427 177z" />
    <glyph glyph-name="macron" unicode="&#xaf;" horiz-adv-x="512" 
d="M477 1272h-356v98h356v-98z" />
    <glyph glyph-name="degree" unicode="&#xb0;" horiz-adv-x="1015" 
d="M510 688q64 0 100 65t37 155q0 90 -33 158q-34 69 -106 69t-105 -69t-33 -159q0 -91 38 -155t102 -64zM508 590q-86 0 -133 -80t-47 -183t49 -179t132 -74q83 0 132 74t49 178q0 102 -48 183t-134 81zM911 918q0 -84 -47 -157t-125 -112q211 -94 211 -325
q0 -158 -134 -254t-307 -96t-307 96t-134 254q0 233 208 321q-78 43 -124 116t-46 157q0 135 122 226t281 91t281 -91t121 -226z" />
    <glyph glyph-name="plusminus" unicode="&#xb1;" 
 />
    <glyph glyph-name="twosuperior" unicode="&#xb2;" horiz-adv-x="722" 
d="M378 1235q64 0 123 -46q60 -46 60 -117t-49 -120l-209 -250h201l61 62v-168h-385v76l215 293q25 37 25 73t-28 73q-28 36 -70 36q-14 0 -29 -6l-62 -33l-38 39l86 61q35 27 99 27z" />
    <glyph glyph-name="threesuperior" unicode="&#xb3;" horiz-adv-x="733" 
d="M401 786q0 52 -42 90t-97 37v48q55 1 90 37t35 71t-33 70t-95 15l-32 -15l-41 45l35 20q55 33 131 33t129 -41t54 -106q0 -102 -99 -152q117 -42 117 -144t-92 -148t-213 -46h-51v59h51q61 0 107 37t46 90z" />
    <glyph glyph-name="acute" unicode="&#xb4;" horiz-adv-x="897" 
d="M395 1407q39 0 57 -22t19 -46q0 -53 -49 -73l-352 -144l262 260q24 25 63 25z" />
    <glyph glyph-name="mu" unicode="&#xb5;" horiz-adv-x="1011" 
d="M371 211q0 -27 17 -51t58 -25q41 0 109 66l84 82v356l-119 117l371 127v-762l121 -121h-373v152l-74 -74q-104 -104 -194 -105v-194l121 -121h-373v981l-119 117l371 127v-672z" />
    <glyph glyph-name="paragraph" unicode="&#xb6;" horiz-adv-x="972" 
d="M668 -342v1444h-123v-1444h-238l105 104l2 750q-141 0 -243 103q-101 103 -101 245t102 246q102 102 246 102h487l-104 -104v-1342l104 -104h-237z" />
    <glyph glyph-name="periodcentered" unicode="&#xb7;" horiz-adv-x="999" 
d="M487 1135q-73 0 -115 -78t-42 -163q0 -132 19 -212q27 -113 140 -113q57 0 117 39q59 39 74 92q6 16 6 76q0 359 -199 359zM59 837q-1 169 139 283t289 115q207 0 329 -135q122 -134 122 -334t-73 -378t-216 -297q-143 -120 -321 -120l-52 2l-20 64q4 2 36 8
q127 24 207 115t116 198q35 108 51 217q-82 -123 -226 -123t-262 108q-119 108 -119 277z" />
    <glyph glyph-name="cedilla" unicode="&#xb8;" horiz-adv-x="430" 
d="M442 -180q0 -72 -85 -113t-187 -41h-31v49h31q36 1 60 19t24 50t-25 51t-57 20h-78l185 184h139l-105 -102q53 -4 91 -36t38 -81z" />
    <glyph glyph-name="onesuperior" unicode="&#xb9;" horiz-adv-x="546" 
d="M342 662l61 -62h-266l62 62v464l-56 56l199 53v-573z" />
    <glyph glyph-name="ordmasculine" unicode="&#xba;" 
 />
    <glyph glyph-name="guillemotright" unicode="&#xbb;" horiz-adv-x="716" 
d="M369 434l-324 -297v35l125 262l-125 260v37zM676 434l-324 -297v35l125 262l-125 260v37z" />
    <glyph glyph-name="onequarter" unicode="&#xbc;" horiz-adv-x="1275" 
d="M907 248v141l-102 -141h102zM1051 -4h-144v172h-225v45l295 410h74v-375h63v-80h-63v-172zM457 0h-178l534 1294h176zM342 662l61 -62h-266l62 62v464l-56 56l199 53v-573z" />
    <glyph glyph-name="onehalf" unicode="&#xbd;" horiz-adv-x="1228" 
d="M457 0h-178l534 1294h176zM944 623q64 0 125 -46q61 -47 61 -113t-49 -122l-211 -250h201l62 62v-170h-385v75l215 295q54 70 -1 146q-28 37 -73 37q-14 0 -29 -9l-61 -30l-37 39l84 61q34 25 98 25zM342 662l61 -62h-266l62 62v464l-56 56l199 53v-573z" />
    <glyph glyph-name="threequarters" unicode="&#xbe;" horiz-adv-x="1275" 
d="M907 248v141l-102 -141h102zM1051 -4h-144v172h-225v45l295 410h74v-375h63v-80h-63v-172zM457 0h-178l534 1294h176zM261 1237q79 0 132 -41t53 -97q0 -112 -100 -161q119 -38 119 -142t-93 -150t-212 -46h-51v59h51q61 0 107 37t46 90q0 52 -42 90t-99 37v48
q57 1 92 37t35 71t-27 63q-48 50 -133 7l-41 45l33 20q51 33 130 33z" />
    <glyph glyph-name="questiondown" unicode="&#xbf;" horiz-adv-x="921" 
d="M512 696q-53 0 -90 38t-37 90t37 90t90 38t91 -38t38 -90t-38 -90t-91 -38zM471 602h98v-248l-196 -233q-61 -74 -61 -165t71 -147q122 -95 235 -34l142 149l129 -229l-264 -45q-373 -65 -503 112q-81 110 -81 207t57 162l373 391v80z" />
    <glyph glyph-name="Agrave" unicode="&#xc0;" horiz-adv-x="1091" 
d="M487 856l-141 -399h275zM231 129l127 -129h-409l131 131l385 1077h156l374 -1077l131 -131h-520l127 129l-67 205h-363zM291 1559h2q25 20 59 18t58 -25l262 -260l-350 144q-37 14 -49 55q-11 41 18 68z" />
    <glyph glyph-name="Aacute" unicode="&#xc1;" horiz-adv-x="1091" 
d="M487 856l-141 -399h275zM231 129l127 -129h-409l131 131l385 1077h156l374 -1077l131 -131h-520l127 129l-67 205h-363zM702 1577q40 0 58 -22t18 -46q0 -53 -49 -73l-352 -144l262 260q24 25 63 25z" />
    <glyph glyph-name="Acircumflex" unicode="&#xc2;" horiz-adv-x="1091" 
d="M487 856l-141 -399h275zM231 129l127 -129h-409l131 131l385 1077h156l374 -1077l131 -131h-520l127 129l-67 205h-363zM563 1620l330 -330h-37l-293 125l-295 -125h-37z" />
    <glyph glyph-name="Atilde" unicode="&#xc3;" horiz-adv-x="1091" 
d="M573 1307q-55 -1 -95 29t-72 30q-31 0 -66 -59h-41q12 82 80 137t128 55t98 -30t59 -29q39 0 71 59h41q-12 -82 -80 -137t-123 -55zM487 856l-141 -399h275zM231 129l127 -129h-409l131 131l385 1077h156l374 -1077l131 -131h-520l127 129l-67 205h-363z" />
    <glyph glyph-name="Adieresis" unicode="&#xc4;" horiz-adv-x="1091" 
d="M487 856l-141 -399h275zM231 129l127 -129h-409l131 131l385 1077h156l374 -1077l131 -131h-520l127 129l-67 205h-363zM383 1528q47 0 81 -34t34 -81t-34 -81t-81 -34t-81 34t-34 81t34 81t81 34zM700 1526q47 0 81 -34t34 -81t-34 -81t-81 -34q-46 0 -80 34t-34 81
t34 81t80 34z" />
    <glyph glyph-name="Aring" unicode="&#xc5;" horiz-adv-x="1091" 
d="M544 1360q-22 0 -36 -15q-16 -15 -16 -38t15 -38t37 -15t37 14q15 16 15 39t-15 38t-37 15zM369 1298q0 83 51 134t124 51t124 -51t51 -135t-81 -139l357 -1027l131 -131h-520l127 129l-67 205h-363l-72 -205l127 -129h-409l131 131l367 1028q-78 56 -78 139zM487 856
l-141 -399h275z" />
    <glyph glyph-name="AE" unicode="&#xc6;" horiz-adv-x="1382" 
d="M504 856l-139 -399h274zM1329 0h-706l129 129l-70 205h-363l-71 -205l127 -129h-410l133 131l383 1077h848v-288l-164 163h-485l135 -378h256l131 131v-385l-131 129h-215l160 -455h149l164 164v-289z" />
    <glyph glyph-name="Ccedilla" unicode="&#xc7;" horiz-adv-x="995" 
d="M944 45q-168 -90 -386 -70l-40 -38q53 -4 91 -36t38 -81q0 -72 -85 -113t-187 -41h-31v49h31q37 1 61 19t23 50q0 32 -25 51t-57 20h-78l145 144q-129 44 -231 165q-162 190 -162 440t162 440t391 191q117 0 186 -13t154 -59v-295l-190 193q-56 57 -144 57
q-169 0 -221 -175q-43 -143 -43 -339q0 -506 258 -506q90 0 150 60l190 190v-303z" />
    <glyph glyph-name="Egrave" unicode="&#xc8;" horiz-adv-x="937" 
d="M274 1559h2q25 20 59 18t58 -25l262 -260l-350 144q-37 14 -48 55q-12 41 17 68zM887 0h-852l129 129v950l-129 129h852v-288l-164 163h-307v-378h213l129 131v-385l-129 129h-213v-455h307l164 164v-289z" />
    <glyph glyph-name="Eacute" unicode="&#xc9;" horiz-adv-x="937" 
d="M887 0h-852l129 129v950l-129 129h852v-288l-164 163h-307v-378h213l129 131v-385l-129 129h-213v-455h307l164 164v-289zM702 1577q40 0 58 -22t18 -46q0 -53 -49 -73l-352 -144l262 260q24 25 63 25z" />
    <glyph glyph-name="Ecircumflex" unicode="&#xca;" horiz-adv-x="937" 
d="M512 1620l330 -330h-37l-293 125l-295 -125h-37zM887 0h-852l129 129v950l-129 129h852v-288l-164 163h-307v-378h213l129 131v-385l-129 129h-213v-455h307l164 164v-289z" />
    <glyph glyph-name="Edieresis" unicode="&#xcb;" horiz-adv-x="937" 
d="M887 0h-852l129 129v950l-129 129h852v-288l-164 163h-307v-378h213l129 131v-385l-129 129h-213v-455h307l164 164v-289zM381 1528q47 0 81 -34t34 -81t-34 -81t-81 -34t-81 34t-34 81t34 81t81 34zM698 1526q47 0 81 -34t34 -81t-34 -81t-81 -34t-81 34t-33 81
q0 47 33 81q34 34 81 34z" />
    <glyph glyph-name="Igrave" unicode="&#xcc;" horiz-adv-x="614" 
d="M78 1559h2q24 20 58 18t59 -25l262 -260l-350 144q-37 14 -49 55q-11 41 18 68zM180 1079l-129 129h512l-129 -129v-950l129 -129h-512l129 129v950z" />
    <glyph glyph-name="Iacute" unicode="&#xcd;" horiz-adv-x="614" 
d="M180 1079l-129 129h512l-129 -129v-950l129 -129h-512l129 129v950zM489 1577q39 0 57 -22t19 -46q0 -53 -49 -73l-352 -144l262 260q24 25 63 25z" />
    <glyph glyph-name="Icircumflex" unicode="&#xce;" horiz-adv-x="614" 
d="M315 1620l330 -330h-37l-293 125l-295 -125h-36zM180 1079l-129 129h512l-129 -129v-950l129 -129h-512l129 129v950z" />
    <glyph glyph-name="Idieresis" unicode="&#xcf;" horiz-adv-x="614" 
d="M180 1079l-129 129h512l-129 -129v-950l129 -129h-512l129 129v950zM168 1528q47 0 81 -34t34 -81t-34 -81t-81 -34t-81 34t-34 81t34 81t81 34zM485 1526q47 0 81 -34t34 -81t-34 -81t-81 -34t-81 34t-33 81q0 47 33 81q34 34 81 34z" />
    <glyph glyph-name="Eth" unicode="&#xd0;" horiz-adv-x="1226" 
d="M199 528h-142v170h142v381l-131 129h555q237 0 395 -179t158 -425t-159 -425t-394 -179h-555l131 129v399zM451 1083v-385h127v-170h-127v-403h129q150 0 226 144q76 145 75 335q0 190 -76 334t-225 145h-129z" />
    <glyph glyph-name="Ntilde" unicode="&#xd1;" horiz-adv-x="1153" 
d="M305 883v-754l131 -129h-401l129 129v950l-129 129h336l501 -721v592l-129 129h400l-129 -129v-1220zM649 1307q-55 -1 -96 29t-72 30t-65 -59h-41q12 82 80 137t128 55t98 -30t58 -29q39 0 72 59h41q-12 -82 -80 -137t-123 -55z" />
    <glyph glyph-name="Ograve" unicode="&#xd2;" horiz-adv-x="1208" 
d="M346 604q0 -514 258 -514t258 514t-258 514t-258 -514zM604 -35q-242 -1 -398 191t-155 448q0 256 156 448q155 192 397 191q242 0 398 -191q156 -192 155 -448q1 -256 -155 -448t-398 -191zM358 1559h2q25 20 59 18t58 -25l262 -260l-350 144q-37 14 -48 55
q-12 41 17 68z" />
    <glyph glyph-name="Oacute" unicode="&#xd3;" horiz-adv-x="1208" 
d="M346 604q0 -514 258 -514t258 514t-258 514t-258 -514zM604 -35q-242 -1 -398 191t-155 448q0 256 156 448q155 192 397 191q242 0 398 -191q156 -192 155 -448q1 -256 -155 -448t-398 -191zM780 1577q40 0 58 -22t18 -46q0 -53 -49 -73l-352 -144l262 260q24 25 63 25z
" />
    <glyph glyph-name="Ocircumflex" unicode="&#xd4;" horiz-adv-x="1208" 
d="M623 1612l329 -330h-37l-292 125l-295 -125h-37zM346 604q0 -514 258 -514t258 514t-258 514t-258 -514zM604 -35q-242 -1 -398 191t-155 448q0 256 156 448q155 192 397 191q242 0 398 -191q156 -192 155 -448q1 -256 -155 -448t-398 -191z" />
    <glyph glyph-name="Otilde" unicode="&#xd5;" horiz-adv-x="1208" 
d="M346 604q0 -514 258 -514t258 514t-258 514t-258 -514zM604 -35q-242 -1 -398 191t-155 448q0 256 156 448q155 192 397 191q242 0 398 -191q156 -192 155 -448q1 -256 -155 -448t-398 -191zM649 1307q-55 -1 -96 29t-72 30t-65 -59h-41q12 82 80 137t128 55t98 -30
t58 -29q39 0 72 59h41q-12 -82 -80 -137t-123 -55z" />
    <glyph glyph-name="Odieresis" unicode="&#xd6;" horiz-adv-x="1208" 
d="M346 604q0 -514 258 -514t258 514t-258 514t-258 -514zM604 -35q-242 -1 -398 191t-155 448q0 256 156 448q155 192 397 191q242 0 398 -191q156 -192 155 -448q1 -256 -155 -448t-398 -191zM449 1528q47 0 81 -34t33 -81q0 -47 -34 -81q-35 -34 -81 -34t-80 34t-34 81
t34 81t81 34zM766 1526q47 0 81 -34t34 -81t-34 -81t-81 -34t-81 34t-34 81t34 81t81 34z" />
    <glyph glyph-name="multiply" unicode="&#xd7;" 
 />
    <glyph glyph-name="Oslash" unicode="&#xd8;" horiz-adv-x="1208" 
d="M604 1118q-258 0 -258 -514q0 -170 31 -291l403 713q-72 92 -176 92zM604 90q258 0 258 514q0 178 -35 301l-401 -717q72 -98 178 -98zM51 604q0 256 156 448t397 191q135 0 258 -72l68 123h119l-103 -186q98 -90 154 -224t57 -280q0 -256 -156 -447t-397 -192
q-143 0 -260 74l-72 -125h-116l102 190q-96 88 -152 222t-55 278z" />
    <glyph glyph-name="Ugrave" unicode="&#xd9;" horiz-adv-x="1142" 
d="M997 324q0 -156 -127 -258t-296 -101q-169 -1 -298 99t-129 260v755l-131 129h512l-129 -129v-755q0 -92 66 -159t158 -67q91 0 157 67t66 159v755l-129 129h409l-129 -129v-755zM358 1559h2q25 20 59 18t58 -25l262 -260l-350 144q-37 14 -48 55q-12 41 17 68z" />
    <glyph glyph-name="Uacute" unicode="&#xda;" horiz-adv-x="1142" 
d="M997 324q0 -156 -127 -258t-296 -101q-169 -1 -298 99t-129 260v755l-131 129h512l-129 -129v-755q0 -92 66 -159t158 -67q91 0 157 67t66 159v755l-129 129h409l-129 -129v-755zM780 1577q40 0 58 -22t18 -46q0 -53 -49 -73l-352 -144l262 260q24 25 63 25z" />
    <glyph glyph-name="Ucircumflex" unicode="&#xdb;" horiz-adv-x="1142" 
d="M604 1620l330 -330h-37l-293 125l-295 -125h-37zM997 324q0 -156 -127 -258t-296 -101q-169 -1 -298 99t-129 260v755l-131 129h512l-129 -129v-755q0 -92 66 -159t158 -67q91 0 157 67t66 159v755l-129 129h409l-129 -129v-755z" />
    <glyph glyph-name="Udieresis" unicode="&#xdc;" horiz-adv-x="1142" 
d="M457 1536q47 0 81 -34t34 -81t-34 -81t-81 -34t-81 34t-34 81t34 81t81 34zM774 1534q47 0 81 -34t34 -81t-34 -81t-81 -34t-81 34t-34 81t34 81t81 34zM997 324q0 -156 -127 -258t-296 -101q-169 -1 -298 99t-129 260v755l-131 129h512l-129 -129v-755q0 -92 66 -159
t158 -67q91 0 157 67t66 159v755l-129 129h409l-129 -129v-755z" />
    <glyph glyph-name="Yacute" unicode="&#xdd;" horiz-adv-x="1032" 
d="M403 545l-305 532l-133 131h547l-127 -127l213 -393l213 393l-129 127h401l-131 -131l-297 -532v-416l129 -129h-512l131 129v416zM747 1552q39 0 58 -21q18 -22 18 -46q0 -53 -49 -74l-352 -143l262 260q24 24 63 24z" />
    <glyph glyph-name="Thorn" unicode="&#xde;" horiz-adv-x="1067" 
d="M416 381h131q90 0 152 69q63 68 63 162t-62 164t-153 70h-131v-465zM416 969h131q195 0 345 -93q150 -92 148 -262q0 -170 -150 -264t-343 -94h-131v-127l131 -129h-512l129 129v950l-129 129h512l-131 -129v-110z" />
    <glyph glyph-name="germandbls" unicode="&#xdf;" horiz-adv-x="1005" 
d="M641 893q0 95 -38 159t-95 64q-125 0 -125 -239v-877h-348l94 96v695q0 176 103 308q102 132 272 132t280 -84t111 -254q1 -76 -63 -152t-156 -106q118 -19 198 -109t80 -198q0 -138 -123 -244t-258 -107q-33 0 -90 19l-20 6v72q104 10 172 82q67 72 67 174t-72 186
q-73 84 -167 84v62q178 47 178 231z" />
    <glyph glyph-name="agrave" unicode="&#xe0;" horiz-adv-x="937" 
d="M262 1243h2q25 21 59 19t58 -25l262 -260l-350 143q-37 14 -49 55t18 68zM563 436h-86q-84 0 -133 -55t-49 -160q0 -39 27 -65t49 -27q22 0 43 10l149 111v186zM452 784q-58 0 -108 -49l-190 -182v260q116 80 286 80t272 -67t103 -179v-526l123 -121h-375v139l-211 -155
q-35 -25 -86 -25q-80 0 -148 81t-67 181q0 139 115 226t268 88h129v112q0 57 -26 97q-27 40 -85 40z" />
    <glyph glyph-name="aacute" unicode="&#xe1;" horiz-adv-x="937" 
d="M563 436h-86q-84 0 -133 -55t-49 -160q0 -39 27 -65t49 -27q22 0 43 10l149 111v186zM452 784q-58 0 -108 -49l-190 -182v260q116 80 286 80t272 -67t103 -179v-526l123 -121h-375v139l-211 -155q-35 -25 -86 -25q-80 0 -148 81t-67 181q0 139 115 226t268 88h129v112
q0 57 -26 97q-27 40 -85 40zM627 1262q39 0 57 -22t18 -46q0 -53 -49 -74l-352 -143l262 260q25 25 64 25z" />
    <glyph glyph-name="acircumflex" unicode="&#xe2;" horiz-adv-x="937" 
d="M563 436h-86q-84 0 -133 -55t-49 -160q0 -39 27 -65t49 -27q22 0 43 10l149 111v186zM452 784q-58 0 -108 -49l-190 -182v260q116 80 286 80t272 -67t103 -179v-526l123 -121h-375v139l-211 -155q-35 -25 -86 -25q-80 0 -148 81t-67 181q0 139 115 226t268 88h129v112
q0 57 -26 97q-27 40 -85 40zM469 1296l330 -329h-37l-293 125l-295 -125h-37z" />
    <glyph glyph-name="atilde" unicode="&#xe3;" horiz-adv-x="937" 
d="M563 436h-86q-84 0 -133 -55t-49 -160q0 -39 27 -65t49 -27q22 0 43 10l149 111v186zM452 784q-58 0 -108 -49l-190 -182v260q116 80 286 80t272 -67t103 -179v-526l123 -121h-375v139l-211 -155q-35 -25 -86 -25q-80 0 -148 81t-67 181q0 139 115 226t268 88h129v112
q0 57 -26 97q-27 40 -85 40zM354 1051q-31 0 -65 -60h-41q12 82 80 137q68 56 128 56t98 -30t58 -30q39 0 72 60h41q-12 -82 -80 -137t-123 -55t-96 29q-41 30 -72 30z" />
    <glyph glyph-name="adieresis" unicode="&#xe4;" horiz-adv-x="937" 
d="M311 1210q47 0 81 -34t34 -80q0 -47 -34 -81t-81 -34t-81 34t-33 81q0 47 33 81q34 33 81 33zM629 1208q47 0 81 -34t34 -80q0 -47 -34 -81t-81 -34t-81 34t-34 81q0 46 34 80t81 34zM563 436h-86q-84 0 -133 -55t-49 -160q0 -39 27 -65t49 -27q22 0 43 10l149 111v186z
M452 784q-58 0 -108 -49l-190 -182v260q116 80 286 80t272 -67t103 -179v-526l123 -121h-375v139l-211 -155q-35 -25 -86 -25q-80 0 -148 81t-67 181q0 139 115 226t268 88h129v112q0 57 -26 97q-27 40 -85 40z" />
    <glyph glyph-name="aring" unicode="&#xe5;" horiz-adv-x="937" 
d="M496 1196q-22 0 -38 -15t-16 -38t16 -38t37 -15q23 0 37 15t15 38q0 23 -15 38q-14 15 -36 15zM319 1144q-1 73 51 124t125 51t123 -51t52 -124q0 -73 -52 -125t-124 -52t-124 52t-51 125zM563 436h-86q-84 0 -133 -55t-49 -160q0 -39 27 -65t49 -27q22 0 43 10l149 111
v186zM452 784q-58 0 -108 -49l-190 -182v260q116 80 286 80t272 -67t103 -179v-526l123 -121h-375v139l-211 -155q-35 -25 -86 -25q-80 0 -148 81t-67 181q0 139 115 226t268 88h129v112q0 57 -26 97q-27 40 -85 40z" />
    <glyph glyph-name="ae" unicode="&#xe6;" horiz-adv-x="1382" 
d="M1081 629q0 49 -47 107q-48 58 -110 59q-62 0 -93 -70t-30 -172h260q20 27 20 76zM549 436h-88q-84 0 -132 -55t-48 -160q-1 -39 25 -65t48 -27q22 0 43 10l152 111v186zM252 -41q-80 0 -148 81t-67 181q0 139 115 226t266 88h131v112q0 57 -28 97t-85 40t-106 -49
l-191 -182v260q113 80 287 80t279 -72q104 80 225 80q180 0 303 -128t123 -329h-555q0 -158 13 -217t37 -83q56 -56 165 -56q61 0 135 29t111 98l71 -72q-90 -100 -180 -135t-223 -35q-193 0 -336 201l-258 -190q-33 -25 -84 -25z" />
    <glyph glyph-name="ccedilla" unicode="&#xe7;" horiz-adv-x="858" 
d="M497 784q-43 0 -67 -10q-77 -31 -83 -240q-1 -36 -1 -100q0 -184 47 -266t161 -82t187 84l70 -70q-78 -72 -152 -100t-182 -27q-12 0 -23 1l-38 -37q53 -4 91 -36t38 -81q0 -72 -85 -113t-188 -41h-30v49h30q37 1 61 19q23 18 23 50t-24 51q-25 19 -58 20h-77l144 144
q-87 34 -161 115q-129 140 -129 321t128 319t298 139q111 0 181 -14t149 -66v-260l-182 182q-31 31 -58 40t-70 9z" />
    <glyph glyph-name="egrave" unicode="&#xe8;" horiz-adv-x="952" 
d="M231 1243h2q25 21 59 19t58 -25l262 -260l-350 143q-36 14 -48 55t17 68zM472 795q-62 0 -94 -71t-32 -173h262q20 31 20 79t-46 106q-48 58 -110 59zM468 -27q-165 1 -291 139t-126 324t122 326t303 139q181 0 303 -126t122 -331h-555q0 -158 13 -217t37 -83
q56 -56 148 -56t148 26q57 26 77 45q19 19 44 52l66 -68q-66 -80 -156 -125t-255 -45z" />
    <glyph glyph-name="eacute" unicode="&#xe9;" horiz-adv-x="952" 
d="M472 795q-62 0 -94 -71t-32 -173h262q20 31 20 79t-46 106q-48 58 -110 59zM468 -27q-165 1 -291 139t-126 324t122 326t303 139q181 0 303 -126t122 -331h-555q0 -158 13 -217t37 -83q56 -56 148 -56t148 26q57 26 77 45q19 19 44 52l66 -68q-66 -80 -156 -125t-255 -45
zM678 1262q39 0 57 -22t19 -46q0 -53 -49 -74l-353 -143l262 260q25 25 64 25z" />
    <glyph glyph-name="ecircumflex" unicode="&#xea;" horiz-adv-x="952" 
d="M472 795q-62 0 -94 -71t-32 -173h262q20 31 20 79t-46 106q-48 58 -110 59zM468 -27q-165 1 -291 139t-126 324t122 326t303 139q181 0 303 -126t122 -331h-555q0 -158 13 -217t37 -83q56 -56 148 -56t148 26q57 26 77 45q19 19 44 52l66 -68q-66 -80 -156 -125t-255 -45
zM502 1296l329 -329h-36l-293 125l-295 -125h-37z" />
    <glyph glyph-name="edieresis" unicode="&#xeb;" horiz-adv-x="952" 
d="M336 1210q47 0 81 -34t34 -80q0 -47 -34 -81t-81 -34t-81 34t-34 81q0 46 34 80t81 34zM653 1208q47 0 81 -34t34 -80q0 -47 -34 -81t-81 -34t-81 34t-33 81q0 47 33 81q34 33 81 33zM472 795q-62 0 -94 -71t-32 -173h262q20 31 20 79t-46 106q-48 58 -110 59zM468 -27
q-165 1 -291 139t-126 324t122 326t303 139q181 0 303 -126t122 -331h-555q0 -158 13 -217t37 -83q56 -56 148 -56t148 26q57 26 77 45q19 19 44 52l66 -68q-66 -80 -156 -125t-255 -45z" />
    <glyph glyph-name="igrave" unicode="&#xec;" horiz-adv-x="555" 
d="M86 1243h2q24 21 58 19t59 -25l262 -260l-350 143q-37 14 -49 55t18 68zM422 121l121 -121h-496l123 121v518l-119 117l371 127v-762z" />
    <glyph glyph-name="iacute" unicode="&#xed;" horiz-adv-x="555" 
d="M422 121l121 -121h-496l123 121v518l-119 117l371 127v-762zM463 1262q39 0 57 -22t19 -46q0 -53 -50 -74l-352 -143l262 260q25 25 64 25z" />
    <glyph glyph-name="icircumflex" unicode="&#xee;" horiz-adv-x="555" 
d="M422 121l121 -121h-496l123 121v518l-119 117l371 127v-762zM305 1296l330 -329h-37l-293 125l-295 -125h-37z" />
    <glyph glyph-name="idieresis" unicode="&#xef;" horiz-adv-x="555" 
d="M147 1210q47 0 81 -34t34 -80q0 -47 -34 -81t-81 -34t-81 34t-33 81q-1 46 33 80t81 34zM465 1208q47 0 81 -34t34 -80q0 -47 -34 -81t-81 -34t-81 34t-34 81q0 46 34 80t81 34zM422 121l121 -121h-496l123 121v518l-119 117l371 127v-762z" />
    <glyph glyph-name="eth" unicode="&#xf0;" horiz-adv-x="989" 
d="M319 1237q154 0 283 -90l109 88h194l-209 -170q111 -113 172 -277t62 -331q0 -213 -122 -348t-331 -136q-147 0 -287 115q-139 115 -139 284q0 168 119 276t262 108t225 -123q-31 195 -98 319l-110 -88h-195l233 189q-68 72 -143 96q-25 8 -61 16l-35 9l20 61q25 2 51 2z
M322 314q0 -84 40 -162t115 -78q201 0 201 358l-6 76q-14 53 -74 92t-116 39t-92 -29t-49 -84t-16 -91t-3 -121z" />
    <glyph glyph-name="ntilde" unicode="&#xf1;" horiz-adv-x="1067" 
d="M696 903q116 0 183 -73q68 -73 67 -148v-561l121 -121h-375v655q0 31 -21 60q-22 29 -71 29t-125 -76l-84 -84v-463l121 -121h-496l123 121v518l-119 117l371 127v-168l74 73q115 115 231 115zM465 1051q-31 0 -66 -60h-41q12 82 80 137q68 56 128 56t98 -30t59 -30
q39 0 72 60h41q-12 -82 -80 -137t-123 -55t-96 29q-41 30 -72 30z" />
    <glyph glyph-name="ograve" unicode="&#xf2;" horiz-adv-x="1038" 
d="M334 1243h2q24 21 58 19t59 -25l262 -260l-350 143q-37 14 -49 55t18 68zM346 434q0 -369 172 -368q174 0 174 368t-173 369q-173 0 -173 -369zM519 -35q-194 0 -331 138t-137 331t137 330t331 137t331 -137t137 -330t-137 -331t-331 -138z" />
    <glyph glyph-name="oacute" unicode="&#xf3;" horiz-adv-x="1038" 
d="M346 434q0 -369 172 -368q174 0 174 368t-173 369q-173 0 -173 -369zM519 -35q-194 0 -331 138t-137 331t137 330t331 137t331 -137t137 -330t-137 -331t-331 -138zM694 1262q40 0 58 -22t18 -46q0 -53 -49 -74l-352 -143l262 260q24 25 63 25z" />
    <glyph glyph-name="ocircumflex" unicode="&#xf4;" horiz-adv-x="1038" 
d="M346 434q0 -369 172 -368q174 0 174 368t-173 369q-173 0 -173 -369zM519 -35q-194 0 -331 138t-137 331t137 330t331 137t331 -137t137 -330t-137 -331t-331 -138zM537 1296l329 -329h-37l-292 125l-295 -125h-37z" />
    <glyph glyph-name="otilde" unicode="&#xf5;" horiz-adv-x="1038" 
d="M346 434q0 -369 172 -368q174 0 174 368t-173 369q-173 0 -173 -369zM519 -35q-194 0 -331 138t-137 331t137 330t331 137t331 -137t137 -330t-137 -331t-331 -138zM406 1051q-31 0 -66 -60h-41q12 82 80 137q68 56 128 56t98 -30t59 -30q39 0 71 60h41q-12 -82 -80 -137
t-123 -55t-95 29q-40 30 -72 30z" />
    <glyph glyph-name="odieresis" unicode="&#xf6;" horiz-adv-x="1038" 
d="M373 1210q47 0 81 -34t34 -80q0 -47 -34 -81t-81 -34t-81 34t-34 81q0 46 34 80t81 34zM690 1208q47 0 81 -34t34 -80q0 -47 -34 -81t-81 -34t-81 34t-34 81q0 46 34 80t81 34zM346 434q0 -369 172 -368q174 0 174 368t-173 369q-173 0 -173 -369zM519 -35
q-194 0 -331 138t-137 331t137 330t331 137t331 -137t137 -330t-137 -331t-331 -138z" />
    <glyph glyph-name="divide" unicode="&#xf7;" 
 />
    <glyph glyph-name="oslash" unicode="&#xf8;" horiz-adv-x="1038" 
d="M524 803q-172 0 -172 -369q0 -102 10 -172l273 490q-47 51 -111 51zM524 66q172 0 172 368q0 103 -14 187l-276 -492q53 -63 118 -63zM524 901q90 0 176 -35l48 86h122l-77 -137q92 -61 145 -163t53 -218q0 -195 -137 -332t-330 -137q-92 0 -190 41l-51 -92h-113l78 143
q-88 63 -139 163t-52 214q-1 193 137 330t330 137z" />
    <glyph glyph-name="ugrave" unicode="&#xf9;" horiz-adv-x="1011" 
d="M317 1235h2q25 20 59 18t58 -24l262 -260l-350 143q-37 14 -48 55q-12 41 17 68zM371 211q0 -27 17 -51t58 -25q41 0 109 66l84 82v356l-119 117l371 127v-762l121 -121h-373v152l-74 -74q-105 -104 -213 -104t-171 66q-62 67 -62 138v461l-119 117l371 127v-672z" />
    <glyph glyph-name="uacute" unicode="&#xfa;" horiz-adv-x="1011" 
d="M371 211q0 -27 17 -51t58 -25q41 0 109 66l84 82v356l-119 117l371 127v-762l121 -121h-373v152l-74 -74q-105 -104 -213 -104t-171 66q-62 67 -62 138v461l-119 117l371 127v-672zM729 1253q39 1 57 -21t19 -46q0 -53 -49 -74l-353 -143l263 260q24 24 63 24z" />
    <glyph glyph-name="ucircumflex" unicode="&#xfb;" horiz-adv-x="1011" 
d="M371 211q0 -27 17 -51t58 -25q41 0 109 66l84 82v356l-119 117l371 127v-762l121 -121h-373v152l-74 -74q-105 -104 -213 -104t-171 66q-62 67 -62 138v461l-119 117l371 127v-672zM545 1296l329 -329h-36l-293 125l-295 -125h-37z" />
    <glyph glyph-name="udieresis" unicode="&#xfc;" horiz-adv-x="1011" 
d="M369 1210q47 0 81 -34t34 -80q0 -47 -34 -81t-81 -34t-81 34t-34 81q0 46 34 80t81 34zM686 1208q47 0 81 -34t34 -80q0 -47 -34 -81t-81 -34t-81 34t-34 81q0 46 34 80t81 34zM371 211q0 -27 17 -51t58 -25q41 0 109 66l84 82v356l-119 117l371 127v-762l121 -121h-373
v152l-74 -74q-105 -104 -213 -104t-171 66q-62 67 -62 138v461l-119 117l371 127v-672z" />
    <glyph glyph-name="yacute" unicode="&#xfd;" horiz-adv-x="937" 
d="M689 1266q40 0 57 -22t18 -46q0 -53 -49 -74l-353 -143l263 260q24 25 64 25zM416 2l-312 727l-120 121h503l-120 -119l182 -414l168 414l-119 119h375l-121 -121l-391 -950l119 -121h-420l166 121z" />
    <glyph glyph-name="thorn" unicode="&#xfe;" horiz-adv-x="1019" 
d="M621 905q157 0 253 -146t97 -323q0 -111 -41 -217t-123 -180t-171 -74t-155 41t-106 100v-327l121 -121h-496l121 121v1274l-117 118l371 125v-532q41 59 107 100t139 41zM553 100q71 0 97 80t26 255t-26 255t-97 80q-72 0 -117 -38t-61 -101v-389q16 -66 61 -104
t117 -38z" />
    <glyph glyph-name="ydieresis" unicode="&#xff;" horiz-adv-x="937" 
d="M416 2l-312 727l-120 121h503l-120 -119l182 -414l168 414l-119 119h375l-121 -121l-391 -950l119 -121h-420l166 121zM373 1210q47 0 81 -34t34 -80q0 -47 -34 -81t-81 -34t-81 34t-34 81q0 46 34 80t81 34zM690 1208q47 0 81 -34t34 -80q0 -47 -34 -81t-81 -34t-81 34
t-34 81q0 46 34 80t81 34z" />
    <glyph glyph-name="dotlessi" unicode="&#x131;" horiz-adv-x="555" 
d="M422 121l121 -121h-496l123 121v518l-119 117l371 127v-762z" />
    <glyph glyph-name="Lslash" unicode="&#x141;" horiz-adv-x="905" 
d="M434 125h289l164 164v-289h-836l129 129v328l-135 -121v170l135 121v452l-129 129h512l-129 -129v-225l129 115v-168l-129 -117v-559z" />
    <glyph glyph-name="lslash" unicode="&#x142;" horiz-adv-x="598" 
d="M172 498l-102 -90v170l102 92v383l-117 118l371 125v-403l127 115v-170l-127 -115v-602l121 -121h-496l121 121v377z" />
    <glyph glyph-name="OE" unicode="&#x152;" horiz-adv-x="1595" 
d="M580 90q256 0 256 514t-256 514q-152 0 -198 -177q-36 -139 -36 -289t7 -225t29 -160q46 -177 198 -177zM580 -35q-231 0 -380 193q-148 194 -148 446t148 446t380 193q131 0 256 -88v53h723v-288l-164 163h-305v-378h210l130 131v-385l-130 129h-210v-455h305l164 164
v-289h-723v53q-125 -88 -256 -88z" />
    <glyph glyph-name="oe" unicode="&#x153;" horiz-adv-x="1579" 
d="M346 434q0 -369 172 -368q174 0 174 368t-173 369q-173 0 -173 -369zM1121 795q-73 0 -103 -72t-31 -170h260q43 66 -5 154t-121 88zM513 -35q-188 0 -325 138t-137 331t137 330q138 137 322 137t319 -121q121 121 293 121t296 -127t124 -330h-555q0 -205 27 -259
q12 -27 39 -53t65 -34q100 -22 192 10t138 107l72 -72q-82 -94 -178 -132t-230 -38q-135 0 -276 119q-135 -127 -323 -127z" />
    <glyph glyph-name="Scaron" unicode="&#x160;" horiz-adv-x="862" 
d="M412 78q66 0 122 49t56 141t-72 135l-289 179q-102 63 -145 150t-43 157q0 135 93 232t278 98q51 0 112 -11l264 -45l-129 -229l-141 151q-46 29 -104 29t-102 -45t-44 -94q0 -102 113 -170l291 -178q154 -94 153 -279q0 -152 -100 -260t-305 -106q-57 0 -129 10l-275 45
l129 248l152 -170q49 -37 115 -37zM424 1280l-272 270h38l234 -125l233 125h37z" />
    <glyph glyph-name="scaron" unicode="&#x161;" horiz-adv-x="724" 
d="M379 981l-273 270h39l234 -125l233 125h37zM387 -41q-56 0 -98 12l-15 2l-256 82l140 185l125 -162q31 -31 82 -31t97 42t46 91t-31 68l-315 162q-111 57 -111 198t90 220t213 79q49 0 103 -14l239 -72l-129 -184l-116 151q-21 27 -67 27t-89 -33q-43 -32 -43 -76t45 -69
l291 -162q112 -63 112 -207t-88 -226q-88 -83 -225 -83z" />
    <glyph glyph-name="Ydieresis" unicode="&#x178;" horiz-adv-x="1032" 
d="M436 1528q47 0 81 -34t34 -81t-34 -81t-81 -34t-81 34t-33 81q0 47 33 81q34 34 81 34zM754 1526q47 0 81 -34q33 -34 33 -81t-34 -81t-80 -34q-47 0 -81 34t-34 81t34 81t81 34zM403 545l-305 532l-133 131h547l-127 -127l213 -393l213 393l-129 127h401l-131 -131
l-297 -532v-416l129 -129h-512l131 129v416z" />
    <glyph glyph-name="Zcaron" unicode="&#x17d;" horiz-adv-x="892" 
d="M43 1208h821l-512 -1083h334l164 164v-289h-821l512 1083h-334l-164 -163v288zM479 1280l-272 270h39l233 -125l234 125h37z" />
    <glyph glyph-name="zcaron" unicode="&#x17e;" horiz-adv-x="782" 
d="M408 942l-273 270h39l234 -125l233 125h37zM51 850h692l-399 -741h223l164 163v-272h-694l401 743h-223l-164 -163v270z" />
    <glyph glyph-name="florin" unicode="&#x192;" horiz-adv-x="700" 
d="M426 25q0 -151 -96 -259t-240 -108h-323l174 240l139 -140q92 31 92 123v836h-137l137 139v55q0 147 96 256t240 109h323l-174 -238l-139 140q-92 -31 -92 -125v-195h205v-106h-205v-727z" />
    <glyph glyph-name="circumflex" unicode="&#x2c6;" horiz-adv-x="681" 
d="M383 1399l330 -330h-37l-293 125l-295 -125h-37z" />
    <glyph glyph-name="caron" unicode="&#x2c7;" horiz-adv-x="679" 
d="M383 1100l-272 270h39l233 -125l233 125h37z" />
    <glyph glyph-name="breve" unicode="&#x2d8;" horiz-adv-x="614" 
d="M350 1126q-96 0 -163 71t-66 173h29q70 -135 208 -135t191 135h31q0 -100 -67 -172t-163 -72z" />
    <glyph glyph-name="dotaccent" unicode="&#x2d9;" horiz-adv-x="372" 
d="M229 1370q37 0 64 -27t27 -63t-28 -64q-26 -26 -63 -26t-63 27t-27 63q1 36 27 64q26 26 63 26z" />
    <glyph glyph-name="ring" unicode="&#x2da;" horiz-adv-x="440" 
d="M264 1282q-22 0 -38 -15t-15 -38q0 -23 15 -38t37 -15t37 15t15 38t-15 38q-14 15 -36 15zM88 1230q0 73 51 124t124 51t124 -51t51 -124t-51 -125t-124 -52t-124 52t-51 125z" />
    <glyph glyph-name="ogonek" unicode="&#x2db;" horiz-adv-x="436" 
d="M221 -82q0 -36 22 -64t56 -28q57 0 84 59l18 -30q-8 -55 -48 -87t-97 -32t-96 42t-39 108t67 116q67 49 142 25l-8 -27q-41 0 -71 -23t-30 -59z" />
    <glyph glyph-name="tilde" unicode="&#x2dc;" horiz-adv-x="598" 
d="M209 1272q-31 0 -66 -60h-41q12 82 80 138t128 55q60 0 98 -30t59 -29q39 0 72 59h41q-12 -82 -80 -137q-68 -56 -123 -56t-96 30t-72 30z" />
    <glyph glyph-name="hungarumlaut" unicode="&#x2dd;" horiz-adv-x="655" 
d="M395 1378q31 -18 23 -56t-39 -50l-285 -129l191 192q65 66 110 43zM610 1378q29 -18 20 -56t-38 -50l-285 -129l191 192q61 66 112 43z" />
    <glyph glyph-name="pi" unicode="&#x3c0;" 
 />
    <glyph glyph-name="endash" unicode="&#x2013;" horiz-adv-x="1331" 
d="M1331 418h-1331v125h1331v-125z" />
    <glyph glyph-name="emdash" unicode="&#x2014;" horiz-adv-x="1441" 
d="M1442 418h-1442v125h1442v-125z" />
    <glyph glyph-name="quoteleft" unicode="&#x2018;" horiz-adv-x="468" 
d="M354 1157v-397l-237 342q-37 51 0 118t112 66q51 0 88 -38t37 -91z" />
    <glyph glyph-name="quoteright" unicode="&#x2019;" horiz-adv-x="468" 
d="M256 1286q76 0 113 -66t0 -118l-240 -342v397q0 51 38 90t89 39z" />
    <glyph glyph-name="quotesinglbase" unicode="&#x201a;" horiz-adv-x="1126" 
d="M778 604q0 72 -2 172t-21 156q-19 57 -42 100q-47 88 -151 87t-150 -88t-55 -200t-9 -298t33 -286q51 -157 182 -157q103 0 150 87t55 177t9 134t1 116zM563 -35q-225 0 -363 194q-138 193 -138 445t138 446t363 194t364 -194q138 -194 138 -446q-1 -252 -139 -446
t-363 -193z" />
    <glyph glyph-name="quotedblleft" unicode="&#x201c;" horiz-adv-x="849" 
d="M377 1157v-397l-238 342q-37 51 0 118t113 66q51 0 88 -38t37 -91zM506 1102q-37 51 0 118t112 66q50 0 88 -38t37 -91v-397z" />
    <glyph glyph-name="quotedblright" unicode="&#x201d;" horiz-adv-x="849" 
d="M623 1286q77 0 113 -66t-1 -118l-237 -342v397q0 53 37 91t88 38zM256 1286q76 0 113 -66t0 -118l-240 -342v397q0 51 38 90t89 39z" />
    <glyph glyph-name="quotedblbase" unicode="&#x201e;" horiz-adv-x="849" 
d="M602 240q62 0 100 -67t0 -118l-239 -342v398q0 53 38 91q39 38 101 38zM221 240q76 0 113 -67t0 -118l-238 -342v398q0 53 37 91t88 38z" />
    <glyph glyph-name="dagger" unicode="&#x2020;" horiz-adv-x="815" 
d="M504 782h127l129 129v-434l-129 129h-127v-948h-193v948h-127l-129 -129v434l129 -129h127v297l-131 129h453l-129 -129v-297z" />
    <glyph glyph-name="daggerdbl" unicode="&#x2021;" horiz-adv-x="835" 
d="M53 1208h752l-379 -1091v-117h-250l426 989h-428l-121 -121v340z" />
    <glyph glyph-name="bullet" unicode="&#x2022;" horiz-adv-x="645" 
d="M323 893q83 0 143 -59q60 -60 60 -144t-60 -143t-143 -59t-143 58q-60 60 -61 144q0 84 60 144q61 59 144 59z" />
    <glyph glyph-name="ellipsis" unicode="&#x2026;" horiz-adv-x="1705" 
d="M1493 120q0 -56 -40 -96t-96 -40t-96 40t-40 96t40 96t96 40t96 -40t40 -96zM938 120q0 -56 -40 -96t-96 -40t-96 40t-40 96t40 96t96 40t96 -40t40 -96zM385 120q0 -56 -40 -96t-97 -40t-97 40t-40 96t40 96t97 40t97 -40t40 -96z" />
    <glyph glyph-name="perthousand" unicode="&#x2030;" horiz-adv-x="1536" 
d="M186 972q0 -181 79 -181t79 181t-79 181t-79 -181zM1194 238q0 -180 78 -181q78 1 78 181t-78 180t-78 -180zM647 238q0 -180 78 -181q80 1 80 181t-79 180t-79 -180zM502 960q0 -85 -70 -156t-167 -71t-168 71t-71 168t71 167t167 69h604v-211l-639 -905v-92h-100v272
l594 838h-268q47 -65 47 -150zM1272 0q-96 0 -167 71t-71 167t71 166t167 71q96 0 167 -71q71 -70 71 -166t-72 -167q-70 -71 -166 -71zM726 0q-97 0 -168 71t-71 167t71 166t168 71q97 0 167 -71q70 -70 70 -166t-70 -167t-167 -71z" />
    <glyph glyph-name="guilsinglleft" unicode="&#x2039;" horiz-adv-x="794" 
d="M229 1116q-83 0 -137 -35l-59 62l49 31q100 63 252 63t251 -78q99 -79 99 -191t-62 -196t-171 -115q119 -29 195 -107t77 -184q0 -104 -54 -176q-92 -123 -333 -171q-100 -19 -207 -19h-84v82h84q129 0 227 78t99 192q0 115 -86 194t-197 79v61q114 0 184 78t70 155
t-57 137t-140 60z" />
    <glyph glyph-name="guilsinglright" unicode="&#x203a;" horiz-adv-x="913" 
d="M487 467v356l-254 -356h254zM487 342h-450v70l584 813h120v-758h127v-125h-127v-221l121 -121h-495l120 121v221z" />
    <glyph glyph-name="fraction" unicode="&#x2044;" horiz-adv-x="571" 
d="M408 96l96 -96h-445l97 96v948l-93 93l345 90v-1131z" />
    <glyph glyph-name="trademark" unicode="&#x2122;" horiz-adv-x="1484" 
d="M401 1133v-521l76 -73h-297l76 73v521h-88l-96 -93v168h512v-168l-97 93h-86zM799 612l78 -73h-236l74 73v521l-74 75h229l162 -286l162 286h215l-74 -75v-521l74 -73h-297l78 73v432l-195 -348l-196 348v-432z" />
    <glyph glyph-name="Omega" unicode="&#x2126;" 
 />
    <glyph glyph-name="partialdiff" unicode="&#x2202;" horiz-adv-x="989" 
d="M319 1237q154 0 283 -90l109 88h194l-209 -170q111 -113 172 -277t62 -331q0 -213 -122 -348t-331 -136q-147 0 -287 115q-139 115 -139 284q0 168 119 276t262 108t225 -123q-31 195 -98 319l-110 -88h-195l233 189q-68 72 -143 96q-25 8 -61 16l-35 9l20 61q25 2 51 2z
M322 314q0 -84 40 -162t115 -78q201 0 201 358l-6 76q-14 53 -74 92t-116 39t-92 -29t-49 -84t-16 -91t-3 -121z" />
    <glyph glyph-name="Delta" unicode="&#x2206;" 
 />
    <glyph glyph-name="product" unicode="&#x220f;" 
 />
    <glyph glyph-name="summation" unicode="&#x2211;" 
 />
    <glyph glyph-name="minus" unicode="&#x2212;" horiz-adv-x="681" 
d="M586 410h-492v141h492v-141z" />
    <glyph glyph-name="radical" unicode="&#x221a;" 
 />
    <glyph glyph-name="infinity" unicode="&#x221e;" horiz-adv-x="835" 
d="M211 723h166q157 0 281 -74t124 -201t-112 -231q-112 -105 -261 -161q-148 -56 -272 -56h-49v82h49q129 0 250 110t121 218q0 72 -60 112t-151 41h-193v645h641l-92 -219h-442v-266z" />
    <glyph glyph-name="integral" unicode="&#x222b;" 
 />
    <glyph glyph-name="approxequal" unicode="&#x2248;" 
 />
    <glyph glyph-name="notequal" unicode="&#x2260;" 
 />
    <glyph glyph-name="lessequal" unicode="&#x2264;" 
 />
    <glyph glyph-name="greaterequal" unicode="&#x2265;" 
 />
    <glyph glyph-name="lozenge" unicode="&#x25ca;" 
 />
    <glyph glyph-name="apple" unicode="&#xf8ff;" 
 />
    <glyph glyph-name="fi" unicode="&#xfb01;" horiz-adv-x="1142" 
d="M408 752v-631l120 -121h-493l121 121v596h-140l140 139v55q0 147 95 256t238 109h326l-174 -238l-141 140q-92 -33 -92 -125v-195h589v-737l121 -121h-495l120 121v514l-114 117h-221z" />
    <glyph glyph-name="fl" unicode="&#xfb02;" horiz-adv-x="1142" 
d="M416 858h205v-106h-205v-631l123 -121h-496l121 121v596h-137l137 139v55q0 147 95 256t239 109h499v-1155l121 -121h-495l120 121v923l-133 134h-96q-45 -10 -72 -45t-26 -80v-195z" />
  </font>
</defs>
</svg>
